<svg xmlns="http://www.w3.org/2000/svg" xmlns:xlink="http://www.w3.org/1999/xlink" viewBox="0 0 508.98 454.8"><defs><clipPath id="a" transform="translate(-257.51 -353.17)"><rect x="159.65" y="293.87" width="704.7" height="418.3" fill="none"/></clipPath><linearGradient id="b" x1="142.85" y1="177.84" x2="161.39" y2="177.84" gradientUnits="userSpaceOnUse"><stop offset="0" stop-color="#fd018c"/><stop offset="1" stop-color="#bd14c0"/></linearGradient><linearGradient id="c" x1="5838.51" y1="4771.04" x2="5857.05" y2="4771.04" gradientTransform="translate(-5237.77 -4165.03)" xlink:href="#b"/></defs><g clip-path="url(#a)"><circle cx="254.49" cy="227.4" r="227.4" fill="#e9e9f4"/></g><path d="M358,475.66h29.88a5,5,0,0,1,0,10H358a5,5,0,0,1,0-10Z" transform="translate(-257.51 -353.17)" fill="#8096db"/><path d="M375.22,430a5,5,0,0,1,3.53,1.47l21.13,21.12a5,5,0,0,1-7.07,7.07l-21.13-21.12a5,5,0,0,1,3.54-8.54Z" transform="translate(-257.51 -353.17)" fill="#8096db"/><path d="M419.67,409.92a5,5,0,0,1,5,5v29.87a5,5,0,0,1-10,0V414.92A5,5,0,0,1,419.67,409.92Z" transform="translate(-257.51 -353.17)" fill="#8096db"/><path d="M657.92,664.38H628a5,5,0,0,1,0-10h29.88a5,5,0,0,1,0,10Z" transform="translate(-257.51 -353.17)" fill="#8096db"/><path d="M640.69,710a5,5,0,0,1-3.53-1.46L616,687.44a5,5,0,0,1,7.07-7.07l21.13,21.13a5,5,0,0,1-3.54,8.53Z" transform="translate(-257.51 -353.17)" fill="#8096db"/><path d="M596.23,730.13a5,5,0,0,1-5-5V695.25a5,5,0,0,1,10,0v29.88A5,5,0,0,1,596.23,730.13Z" transform="translate(-257.51 -353.17)" fill="#8096db"/><path d="M396.07,618.44a45.63,45.63,0,0,1-45.57-45.58v-8.68a45.65,45.65,0,0,1,45.43-45.57l5.67,0v24.82l-5.63,0a20.8,20.8,0,0,0-20.66,20.75v8.68a20.79,20.79,0,0,0,20.76,20.76H449.8a20.78,20.78,0,0,0,20.75-20.76v-8.68a20.77,20.77,0,0,0-20.75-20.75H432.07V518.61H449.8a45.62,45.62,0,0,1,45.58,45.57v8.68a45.63,45.63,0,0,1-45.58,45.58Z" transform="translate(-257.51 -353.17)" fill="#8096db"/><path d="M449.8,524.26H437.73v13.52H449.8a26.48,26.48,0,0,1,26.41,26.4v8.68a26.49,26.49,0,0,1-26.41,26.41H396.07a26.49,26.49,0,0,1-26.41-26.41v-8.68a26.49,26.49,0,0,1,26.28-26.4V524.26a40,40,0,0,0-39.79,39.92v8.68a40,40,0,0,0,39.92,39.93H449.8a40,40,0,0,0,39.93-39.93v-8.68A40,40,0,0,0,449.8,524.26Z" transform="translate(-257.51 -353.17)" fill="#8096db"/><path d="M388.2,618.44a45.63,45.63,0,0,1-45.57-45.58v-8.68a45.62,45.62,0,0,1,45.57-45.57h13.4v24.82H388.2a20.78,20.78,0,0,0-20.75,20.75v8.68a20.78,20.78,0,0,0,20.75,20.76h53.74a20.78,20.78,0,0,0,20.75-20.76v-8.68a20.78,20.78,0,0,0-20.75-20.75h-9.87V518.61h9.87a45.62,45.62,0,0,1,45.57,45.57v8.68a45.63,45.63,0,0,1-45.57,45.58Z" transform="translate(-257.51 -353.17)" fill="#9eaeda"/><line x1="23.66" y1="215.34" x2="124.1" y2="215.34" fill="#9eaeda" stroke="#8096db" stroke-linecap="round" stroke-linejoin="round" stroke-width="28.98"/><line x1="114.93" y1="215.34" x2="14.49" y2="215.34" fill="none" stroke="#9eaeda" stroke-linecap="round" stroke-linejoin="round" stroke-width="28.98"/><rect x="142.85" y="165.44" width="18.54" height="24.81" stroke="#fff" stroke-linecap="round" stroke-linejoin="round" stroke-width="0.71" fill="url(#b)"/><path d="M623.57,518.59a45.64,45.64,0,0,1,45.58,45.58v8.68a45.65,45.65,0,0,1-45.44,45.57l-5.67,0V593.62l5.63,0a20.8,20.8,0,0,0,20.66-20.75v-8.68a20.78,20.78,0,0,0-20.76-20.75H569.84a20.77,20.77,0,0,0-20.75,20.75v8.68a20.77,20.77,0,0,0,20.75,20.75h17.73v24.82H569.84a45.63,45.63,0,0,1-45.58-45.57v-8.68a45.64,45.64,0,0,1,45.58-45.58Z" transform="translate(-257.51 -353.17)" fill="#8096db"/><path d="M569.84,612.77h12.07V599.25H569.84a26.48,26.48,0,0,1-26.41-26.4v-8.68a26.49,26.49,0,0,1,26.41-26.41h53.73A26.49,26.49,0,0,1,650,564.17v8.68a26.48,26.48,0,0,1-26.28,26.4v13.52a40,40,0,0,0,39.79-39.92v-8.68a40,40,0,0,0-39.92-39.93H569.84a40,40,0,0,0-39.92,39.93v8.68A40,40,0,0,0,569.84,612.77Z" transform="translate(-257.51 -353.17)" fill="#8096db"/><path d="M631.44,518.59A45.63,45.63,0,0,1,677,564.17v8.68a45.62,45.62,0,0,1-45.57,45.57H618V593.6h13.4a20.78,20.78,0,0,0,20.75-20.75v-8.68a20.78,20.78,0,0,0-20.75-20.75H577.7A20.78,20.78,0,0,0,557,564.17v8.68A20.78,20.78,0,0,0,577.7,593.6h9.87v24.82H577.7a45.62,45.62,0,0,1-45.57-45.57v-8.68a45.63,45.63,0,0,1,45.57-45.58Z" transform="translate(-257.51 -353.17)" fill="#9eaeda"/><rect x="600.74" y="593.61" width="18.54" height="24.81" transform="translate(962.51 858.86) rotate(-180)" stroke="#fff" stroke-linecap="round" stroke-linejoin="round" stroke-width="0.71" fill="url(#c)"/><line x1="208.43" y1="215.34" x2="308.87" y2="215.34" fill="#9eaeda" stroke="#8096db" stroke-linecap="round" stroke-linejoin="round" stroke-width="28.98"/><line x1="299.7" y1="215.34" x2="199.26" y2="215.34" fill="none" stroke="#9eaeda" stroke-linecap="round" stroke-linejoin="round" stroke-width="28.98"/><line x1="394.05" y1="215.34" x2="494.49" y2="215.34" fill="#9eaeda" stroke="#8096db" stroke-linecap="round" stroke-linejoin="round" stroke-width="28.98"/><line x1="485.32" y1="215.34" x2="384.88" y2="215.34" fill="none" stroke="#9eaeda" stroke-linecap="round" stroke-linejoin="round" stroke-width="28.98"/></svg>