<svg xmlns="http://www.w3.org/2000/svg" xmlns:xlink="http://www.w3.org/1999/xlink" viewBox="0 0 641.74 454.8"><defs><clipPath id="a" transform="translate(-188.63 -362.15)"><rect x="159.65" y="302.85" width="704.7" height="418.3" fill="none"/></clipPath><linearGradient id="b" x1="-88.41" y1="4268.53" x2="-66.93" y2="4268.53" gradientTransform="translate(4488.05 282.28) rotate(90)" gradientUnits="userSpaceOnUse"><stop offset="0" stop-color="#fd018c"/><stop offset="1" stop-color="#bd14c0"/></linearGradient><linearGradient id="c" x1="-88.41" y1="891.9" x2="-66.93" y2="891.9" gradientTransform="matrix(0, 1, 1, 0, -466.7, 282.28)" xlink:href="#b"/></defs><g clip-path="url(#a)"><circle cx="323.37" cy="227.4" r="227.4" fill="#e9e9f4"/></g><line x1="170.68" y1="204.6" x2="5" y2="204.6" fill="none" stroke="#9eaeda" stroke-linecap="round" stroke-linejoin="round" stroke-width="10"/><rect x="369.04" y="535.79" width="27.1" height="61.94" rx="7.12" transform="translate(760.71 -177.98) rotate(90)" fill="#9eaeda"/><rect x="376.73" y="535.79" width="27.1" height="61.94" rx="7.12" transform="translate(768.4 -185.68) rotate(90)" fill="#8096db"/><path d="M460.13,611.46H390.58A23.55,23.55,0,0,1,367.1,588V545.52A23.55,23.55,0,0,1,390.58,522h69.55Z" transform="translate(-188.63 -362.15)" fill="#9eaeda"/><path d="M453.78,498.52H423.9a5,5,0,0,1,0-10h29.88a5,5,0,0,1,0,10Z" transform="translate(-188.63 -362.15)" fill="#9eaeda"/><path d="M462.25,474a5,5,0,0,1-3.53-1.47l-21.13-21.12a5,5,0,0,1,7.07-7.07l21.13,21.12a5,5,0,0,1-3.54,8.54Z" transform="translate(-188.63 -362.15)" fill="#9eaeda"/><path d="M485.58,462.65a5,5,0,0,1-5-5V427.77a5,5,0,0,1,10,0v29.88A5,5,0,0,1,485.58,462.65Z" transform="translate(-188.63 -362.15)" fill="#9eaeda"/><path d="M595.77,649.19H565.89a5,5,0,1,1,0-10h29.88a5,5,0,0,1,0,10Z" transform="translate(-188.63 -362.15)" fill="#9eaeda"/><path d="M578.54,694.84a5,5,0,0,1-3.53-1.47l-21.13-21.12a5,5,0,1,1,7.07-7.07l21.13,21.12a5,5,0,0,1-3.54,8.54Z" transform="translate(-188.63 -362.15)" fill="#9eaeda"/><path d="M534.09,714.93a5,5,0,0,1-5-5V680.06a5,5,0,0,1,10,0v29.87A5,5,0,0,1,534.09,714.93Z" transform="translate(-188.63 -362.15)" fill="#9eaeda"/><rect x="256.53" y="159.89" width="23.55" height="89.42" rx="8.45" fill="#8096db"/><path d="M475.15,526.85h0a7,7,0,0,1,7,7v35.77a0,0,0,0,1,0,0H468.18a0,0,0,0,1,0,0V533.82A7,7,0,0,1,475.15,526.85Z" transform="translate(834.73 -289.07) rotate(90)" fill="#9eaeda"/><path d="M475.15,563.92h0a7,7,0,0,1,7,7v35.77a0,0,0,0,1,0,0H468.18a0,0,0,0,1,0,0V570.88A7,7,0,0,1,475.15,563.92Z" transform="translate(871.8 -252.01) rotate(90)" fill="#9eaeda"/><polygon points="225.63 203.15 225.63 215.34 199.87 200.82 219.64 203.15 219.64 193.86 239.18 198.76 239.18 213.43 225.63 203.15" stroke="#fff" stroke-linecap="round" stroke-linejoin="round" fill="url(#b)"/><rect x="627.65" y="535.79" width="27.1" height="61.94" rx="7.12" transform="translate(-114.2 845.8) rotate(-90)" fill="#9eaeda"/><line x1="471.06" y1="204.6" x2="636.74" y2="204.6" fill="none" stroke="#9eaeda" stroke-linecap="round" stroke-linejoin="round" stroke-width="10"/><rect x="619.39" y="535.79" width="27.1" height="61.94" rx="7.12" transform="translate(-122.45 837.54) rotate(-90)" fill="#8096db"/><path d="M555.06,522H633.2a23.55,23.55,0,0,1,23.48,23.48V588a23.55,23.55,0,0,1-23.48,23.47H555.06Z" transform="translate(-188.63 -362.15)" fill="#9eaeda"/><rect x="511.2" y="550.98" width="97.42" height="31.55" rx="12.45" transform="translate(938.03 -355.31) rotate(90)" fill="#9eaeda"/><rect x="359.5" y="159.89" width="23.55" height="89.42" rx="8.45" fill="#8096db"/><rect x="366.1" y="179.1" width="7.47" height="13.94" rx="3.73" fill="#9eaeda"/><rect x="366.1" y="216.17" width="7.47" height="13.94" rx="3.73" fill="#9eaeda"/><polygon points="419.1 203.15 419.1 215.34 444.86 200.82 425.09 203.15 425.09 193.86 405.55 198.76 405.55 213.43 419.1 203.15" stroke="#fff" stroke-linecap="round" stroke-linejoin="round" fill="url(#c)"/></svg>