<svg id="Layer_1" data-name="Layer 1" xmlns="http://www.w3.org/2000/svg" xmlns:xlink="http://www.w3.org/1999/xlink" viewBox="0 0 609.31 606"><defs><linearGradient id="linear-gradient" x1="39.45" y1="788.63" x2="40.59" y2="788.63" gradientTransform="matrix(42.72, 0, 0, -36.01, -1371.74, 28469.17)" gradientUnits="userSpaceOnUse"><stop offset="0" stop-color="#cb0c9f"/><stop offset="1" stop-color="#921ba6"/></linearGradient></defs><title>Untitled-7</title><g id="Group_38" data-name="Group 38"><g id="Group_35" data-name="Group 35"><path id="Path_75" data-name="Path 75" d="M83.07,348l10.47-.72a3.08,3.08,0,0,1,3.29,2.8l2.39,26.06a3.08,3.08,0,0,1-2.79,3.36h0l-9.66.85a3.09,3.09,0,0,1-3.34-2.7l-3.19-26.18A3.08,3.08,0,0,1,82.9,348Z" transform="translate(-45.34 -47)" fill="#302d4f"/><g id="Group_28" data-name="Group 28"><path id="Path_76" data-name="Path 76" d="M446.12,614.53l10.48-12.89H476l9.37,25.17c-32.19,17-65.54,23.4-104.16,23.4-96,0-177.31-70.22-177.31-183.16,0-120.54,83.09-225.29,213.59-225.29,101.82,0,170.28,72,170.28,169.12,0,88.36-49.15,139.27-104.16,139.27-23.41,0-45.06-14.63-43.89-50.91h-1.75c-20.48,34.52-47.4,50.91-83.09,50.91-33.35,0-62.62-26.92-62.62-73.15,0-72.56,57.35-139.27,138.69-139.27,25.16,0,47.4,5.85,62.61,12.88L473.62,456.52c-8.78,44.47-1.76,65,17.55,65.54,29.85.59,63.2-39.21,63.2-106.5,0-85.44-50.91-146.29-142.2-146.29-94.79,0-175,75.48-175,194.28,0,97.72,63.78,158.58,149.8,158.58a217.57,217.57,0,0,0,46.78-4.87m19.35-243.83a96.86,96.86,0,0,0-29.26-4.68c-51.49,0-93,49.15-93,105.91,0,26.34,12.87,44.48,38.62,44.48,33.94,0,65-43.3,71.39-79.59Z" transform="translate(-45.34 -47)" fill="#8a23a5"/></g><g id="Group_29" data-name="Group 29"><path id="Path_77" data-name="Path 77" d="M466,626.81c-32.19,17-65.54,23.4-104.16,23.4-96,0-177.31-70.22-177.31-183.16,0-120.54,83.09-225.29,213.59-225.29,101.82,0,170.28,72,170.28,169.12,0,88.36-49.15,139.27-104.16,139.27-23.41,0-45.06-14.63-43.89-50.91h-1.75c-20.48,34.52-47.4,50.91-83.09,50.91-33.35,0-62.62-26.92-62.62-73.15,0-72.56,57.35-139.27,138.69-139.27,25.16,0,47.4,5.85,62.61,12.87L454.27,456.52c-8.78,44.47-1.76,65,17.55,65.54,29.85.59,63.2-39.21,63.2-106.5,0-85.44-50.91-146.29-142.2-146.29-94.8,0-175,75.48-175,194.27,0,97.73,63.78,158.59,149.8,158.59,33.94,0,65-7,88.95-20.49ZM433.78,373.42a97.17,97.17,0,0,0-29.26-4.68c-51.49,0-93,49.16-93,105.92,0,26.33,12.87,44.47,38.62,44.47,33.94,0,65-43.3,71.39-79.58Z" transform="translate(-45.34 -47)" fill="#fafafa"/></g><path id="Path_78" data-name="Path 78" d="M154.43,343.32c.27,7.54,0,12.79,0,12.79s-.39,6.23,7.49,5.91,7.54-6.24,7.54-6.24l-3.61-18.7Z" transform="translate(-45.34 -47)" fill="#ffc3ab"/><path id="Path_79" data-name="Path 79" d="M105.65,400.15c-4.67-7.87-15.5-24.6-15.5-24.6s6.4.74,7.75-4.68c0,0,3.16-1.72,3-6.64,0,0,2.29-4.92-3-5.17s-15.37,0-15.37,0a28,28,0,0,1-3.45-5.76c-1.48-3.34-3,3.08-2.7,8.73s3.69,14.24,3.69,14.24,3,9.86,7.87,22.41,10.82,24.6,15.25,25.09,9.84-4.92,9.84-4.92Z" transform="translate(-45.34 -47)" fill="#ffc3ab"/><path id="Path_80" data-name="Path 80" d="M167.16,623.47c.66,11.81-1.64,17.17,0,21.88l4.27,1.09,8.85-.88V625.77C180.28,619.21,167.16,623.47,167.16,623.47Z" transform="translate(-45.34 -47)" fill="#ffc3ab"/><path id="Path_81" data-name="Path 81" d="M123.85,622.11c1.83,13.14,3.94,21.7,3.94,21.7s9.51,7.42,13.77,1.74l-3.28-25.68Z" transform="translate(-45.34 -47)" fill="#ffc3ab"/><path id="Path_82" data-name="Path 82" d="M133.7,427.3c-4.92,8.53-15.75,44.94-20.67,64.95s-6.56,30.84-5.9,44.62,13.22,96.45,13.22,96.45,11.38,6.56,22.21-1.64c0,0,.66-42.65,0-62a214.13,214.13,0,0,0-5.25-38.13l15.36-55.7s3.67,23.62,5.31,49.21,4.59,105,4.59,105,9.51,8.53,18.37,2.29c0,0,3.94-21.65,5.58-36.74s2.62-37.07,0-51.83c0,0-1-36.74-1-53.8s.54-24.93-2.95-41.66-6.23-21-6.23-21Z" transform="translate(-45.34 -47)" fill="#2082ab"/><path id="Path_83" data-name="Path 83" d="M165.52,653h18.7s2.95-4.59,0-8.86-6.56-8.53-11.81-4.26S165.19,647.1,165.52,653Z" transform="translate(-45.34 -47)" fill="#302d4f"/><path id="Path_84" data-name="Path 84" d="M141.9,653H114.35s-2.63-6.56,5.25-9.19,9.84-3.93,9.84-3.93,3.28,3.6,7.21,3.6,5.25-.65,5.25-.65S147.32,647.59,141.9,653Z" transform="translate(-45.34 -47)" fill="#302d4f"/><path id="Path_85" data-name="Path 85" d="M184.88,423.8c.49,7.11-.49,23.59,0,27s.24,3.19-4.43,5.41a26.84,26.84,0,0,0-7.87,5.9,6,6,0,0,0,6.24,0s-2.31,1.48,1.38,3.45a32.1,32.1,0,0,1,5.15,3.2s4,.49,6.91-8.12a207.78,207.78,0,0,0,6.89-24.11,77.25,77.25,0,0,0,1.72-14.77Z" transform="translate(-45.34 -47)" fill="#ffc3ab"/><path id="Path_86" data-name="Path 86" d="M182,429.18s-3.22,4.93-20,8.37-26-3.94-29.29-6.4-.92-3.93,0-6.64,0-3.44,0-3.44c-3.51-.5-1.41-6.65-1.41-9.85V400.15l-15.5,19.6s-4.67,3-7,0-7.87-16.4-7.87-20.67,3.28-2.62,3.28-2.62,12.46-19,19.35-27.89,13.77-12.46,19-12.46h11.88s.57,3.69,7.51,2.95,7.51-3.28,7.51-3.28,6.86,1.31,12.49,2.79,9.82,2.95,13.26,9.35,6.4,11.28,6.15,21a72.32,72.32,0,0,0,2.7,22c1.23,3.69-1,7.62-1.23,10.33s2.46,5.17,0,6.4-14,4.92-17.46,3.19Z" transform="translate(-45.34 -47)" fill="#d35552"/><path id="Path_87" data-name="Path 87" d="M132.82,308.81c0,6.36-1.27,19.7,3.18,28s11.44,12.71,22.87,7.62,14-9.53,14-16.53c0,0,5.72.64,6.35-5.71s-6.35-5.73-6.35-5.73,7-14.61-3.82-21.6S136.63,287.2,132.82,308.81Z" transform="translate(-45.34 -47)" fill="#ffc3ab"/><path id="Path_88" data-name="Path 88" d="M132.5,283.07s-1.27-5.09,5.09-5.72,7.62,2.54,7.62,2.54,11.44-2.54,13.35,4.45c0,0,8.26,0,11.44,3.18s3.81,8.26,3.81,8.26a6.24,6.24,0,0,1,7,1.27c3.17,3.18-1.28,10.81-1.28,10.81s3.66,8.28-5.48,8.59c0,0-.24,7.93-.87,11.75S175.09,339,156,346.63c0,0-21.08,5.27-22.94-20.25a23.48,23.48,0,0,0,7-3.27c3.81-2.54,8.26,1.91,12.07,2.54s14.62,1.27,15.89-5.08v-6.36a15.34,15.34,0,0,1-8.26-10.8s-3.18.63-3.81-1.27a11.63,11.63,0,0,1-11.44,4.44s-3.82,5.09-8.9,3.18a4,4,0,0,1-4.81,2.89,3.7,3.7,0,0,1-.91-.34,5.35,5.35,0,0,1-3.18-6.36s-5.72-3.18-5.08-8.9c0,0-3.51-6.66,1.9-12.08C128.05,280.53,132.5,283.07,132.5,283.07Z" transform="translate(-45.34 -47)" fill="#1f82ab"/><ellipse id="Ellipse_7" data-name="Ellipse 7" cx="108.88" cy="270.94" rx="1.3" ry="1.83"/><ellipse id="Ellipse_8" data-name="Ellipse 8" cx="93.62" cy="270.94" rx="1.3" ry="1.83"/><path id="Path_89" data-name="Path 89" d="M388.11,342c-2.46,9.95-3.2,12.43,3.93,20s11.57,11.06,8.86,19.42S396,393,394,399.9s-2.73,13.29-14.05,7.39-21.31-6.24-20.25-15.17,1.8-13.87-1.9-17.56-7.21-7.2-4.34-16.27,7.05-18.42,7.05-18.42l3.24,3.69s-6.68,8.88-6.68,18.47,6.71,7.36,6.68,14.75-1.29,10.84-1,16.79,9.82,7.88,16.6,9.82,8.75,3.9,11-1.27,3.94-12.8,6.64-19.93,1.48-8.61-4.92-15-9.35-11.63-9.35-17.62a29.19,29.19,0,0,1,2.21-10.83Z" transform="translate(-45.34 -47)" fill="#100e26"/><path id="Path_90" data-name="Path 90" d="M151.89,312c2.54,0,5.72,0,7,.63s1.56-1.2-1.31-1.86a25.13,25.13,0,0,0-6.3-.41Z" transform="translate(-45.34 -47)"/><path id="Path_91" data-name="Path 91" d="M145.18,333.39h11.16s-.08,3.61-5.58,3.7S145.18,333.39,145.18,333.39Z" transform="translate(-45.34 -47)" fill="#fafafa"/><path id="Path_92" data-name="Path 92" d="M139.88,312.17a9,9,0,0,0-3.18,1.13c-1.28.86-2.06.91-.79-1.13s4.93-1.87,4.93-1.87Z" transform="translate(-45.34 -47)"/><path id="Path_93" data-name="Path 93" d="M92.37,333.39l-9.19-8.78H54s-7.21,1.59-8.2-6.09,0-18.51,0-18.51-1-6.56,6.56-6.89,31.5,0,31.5,0,4.43,0,5.82,7.55S94,332.49,94,332.49,94.15,335.1,92.37,333.39Z" transform="translate(-45.34 -47)" fill="#302d4f"/><path id="Path_94" data-name="Path 94" d="M67.15,304.44s2.09-4.31,6.4-2.95,4.67,6.9,0,12.37-5.66,6-8.74,3-11.72-11.48-7.13-15.64a5.66,5.66,0,0,1,8,.22A5.72,5.72,0,0,1,67.15,304.44Z" transform="translate(-45.34 -47)" fill="#fafafa"/><path id="Path_95" data-name="Path 95" d="M279.72,297.18l-9.19-8.77h-29.2s-7.21,1.58-8.2-6.1,0-18.51,0-18.51-1-6.56,6.56-6.89,31.5,0,31.5,0,4.43,0,5.82,7.55,4.3,31.82,4.3,31.82S281.5,298.89,279.72,297.18Z" transform="translate(-45.34 -47)" fill="#302d4f"/><path id="Path_96" data-name="Path 96" d="M254.5,268.23s2.09-4.3,6.39-3,4.68,6.9,0,12.37-5.65,6-8.73,3S240.44,269.17,245,265a5.67,5.67,0,0,1,9.48,3.22Z" transform="translate(-45.34 -47)" fill="#fafafa"/><path id="Path_97" data-name="Path 97" d="M324,150.66l9.19-8.78H362.4s7.22,1.59,8.2-6.09,0-18.51,0-18.51,1-6.56-6.56-6.89-31.49,0-31.49,0-4.43,0-5.82,7.54-4.31,31.83-4.31,31.83S322.23,152.36,324,150.66Z" transform="translate(-45.34 -47)" fill="#9bb4da"/><path id="Path_98" data-name="Path 98" d="M607.64,350l9.18-8.78H646s7.21,1.59,8.2-6.09,0-18.51,0-18.51,1-6.56-6.56-6.89-31.5,0-31.5,0-4.42,0-5.82,7.55-4.3,31.82-4.3,31.82S605.85,351.66,607.64,350Z" transform="translate(-45.34 -47)" fill="#1f82ab"/><path id="Path_99" data-name="Path 99" d="M349.24,121.71s-2.09-4.31-6.4-2.95-4.67,6.9,0,12.37,5.66,6,8.74,3,11.72-11.48,7.13-15.64a5.66,5.66,0,0,0-9.47,3.22Z" transform="translate(-45.34 -47)" fill="#fafafa"/><path id="Path_100" data-name="Path 100" d="M340.62,313.86A194.24,194.24,0,0,1,339.39,342c-1,7.73-7.62,10-15.25,8.75s-16.73-6-21.65-18.27-2-25.31,17-28.51S340.62,313.86,340.62,313.86Z" transform="translate(-45.34 -47)" fill="#f0aa89"/><path id="Path_101" data-name="Path 101" d="M360.55,335.24v-4.35a6.52,6.52,0,0,1,6.52-6.52h14.52a6.52,6.52,0,0,1,6.52,6.52h0V342l-5.42,1.58H360.55Z" transform="translate(-45.34 -47)" fill="#100e26"/><path id="Path_102" data-name="Path 102" d="M364.71,327.25h10.38l2,11.49H366.7Z" transform="translate(-45.34 -47)" fill="#1f82ab"/><path id="Path_103" data-name="Path 103" d="M369.89,335.24c-2,4.39-3.44,7.92-3.69,11.32s-4.67,6.77-8.61,11.72S340.68,378,340.68,378L329.3,367.18s6.14-2.87,16-11.4,11.81-12,12.3-16.65a15.56,15.56,0,0,1,3-7.67v3.77l3.24,3.16S365,334.54,369.89,335.24Z" transform="translate(-45.34 -47)" fill="#f0aa89"/><circle id="Ellipse_9" data-name="Ellipse 9" cx="337.1" cy="283.03" r="2.09" fill="#1f82ab"/><path id="Path_104" data-name="Path 104" d="M284.28,484.38c-.66,13.12,1.31,34.45,0,52.16s-2.69,30.51.46,55.44,5.31,32.81,3.08,39.7-2,16-2,16h16.87V634.28c0-7.2-1-12.12,2-35.4a438.74,438.74,0,0,0,3.28-54.46c0-10.83,2.62-32.8,4.26-45.27S284.28,484.38,284.28,484.38Z" transform="translate(-45.34 -47)" fill="#f0aa89"/><path id="Path_105" data-name="Path 105" d="M320.66,512.59c4,14.77,6.92,24.28,6.92,32.81s.33,21,9.51,42.32,15.29,32.8,15.36,40.35-1.06,13,0,19.63h27.29s2-5.13-4.26-9.59-9.19-4.14-9.84-10.7-6.89-44-10.83-61.37-7-27.86-8.08-53.45S320.66,512.59,320.66,512.59Z" transform="translate(-45.34 -47)" fill="#f0aa89"/><path id="Path_106" data-name="Path 106" d="M284.61,653H304l2-7.45h-23.1Z" transform="translate(-45.34 -47)" fill="#302d4f"/><path id="Path_107" data-name="Path 107" d="M352.45,653h29.26l1.64-7.45h-33Z" transform="translate(-45.34 -47)" fill="#302d4f"/><path id="Path_108" data-name="Path 108" d="M368.76,633.78v15.5h5.08V636.67S372.55,630.31,368.76,633.78Z" transform="translate(-45.34 -47)" fill="#302d4f"/><path id="Path_109" data-name="Path 109" d="M292.81,425.66c-4.92,15.09-11.16,28.87-14.77,50.85a186.18,186.18,0,0,0-2.62,37.72s10.83,7.22,36.41,5.91L314,497.83l5.35,22.47s24.28.49,38.06-9.35c0,0-5.66-28.86-10.7-48.88a167.12,167.12,0,0,0-14.23-36.41Z" transform="translate(-45.34 -47)" fill="#2082ab"/><path id="Path_110" data-name="Path 110" d="M348.25,380.47c7.38,7.87,15.25,15.25,15.25,15.25s3.44-6.64,8.12-17.22,7.87-19.11,8.12-22.72-1.48-20.54-1.48-20.54,4.67-.29,5.66,5.12l4.18-7V331.5s3.94-.9,3.94,5.58-3.2,18.7-3.2,18.7-3.2,18.53-5.66,31.08-4.92,27.07-13.29,27.07-22.63-9.47-33.95-20.36C336,393.58,332,380,348.25,380.47Z" transform="translate(-45.34 -47)" fill="#f0aa89"/><path id="Path_111" data-name="Path 111" d="M320.69,359.39c13.12,2.3,24.93,12.47,32.81,23.62a32.69,32.69,0,0,1-16.41,15.42s-2.62,18-4.59,27.23c0,0-23.62,7.21-39.69,0,0,0-3.94-24.28-4.92-35.1S296.74,352.5,320.69,359.39Z" transform="translate(-45.34 -47)" fill="#9bb4da"/><path id="Path_112" data-name="Path 112" d="M427,57.91c-6.89,0-9.84,1.31-14.43,4.59s-6.24,4.92-9.19,5.58-7.54,1.31-9.18,7.22-5.25,6.23-7.88,8.86a17.76,17.76,0,0,0-5.25,16.4c1.64,8.2-1,9.18-2.29,13.94s-.33,9.35,2.95,11.65,3,4.59,3.94,10.17,4.26,17.05,22,17.05,14.76.33,29.85,3.61,16.07-1,24.6-2,10.17-3.93,13.78-11.48,5.57-8.53,9.84-13.45,3.93-12.79,0-20-2.63-10.5-4.92-13.45-6.24-3.61-6.24-10.5-.65-10.82-6.89-15.42-5.25-6.23-11.15-9.18-6.56-1.31-13.45-.66S438.46,57.91,427,57.91Z" transform="translate(-45.34 -47)" fill="#100e26"/><path id="Path_113" data-name="Path 113" d="M324.63,290.48c-7.52-.88-8.86-2.24-15.42,2.51s-9.19,3.3-11.81,6.64-5.25,7.09-3.94,14.24-1,6.48-3.28,10.43-4.59,6.23-4.26,12.79,2.95,7.23,2,12.47-1,5.24-2,11.15S280,366,281.65,372.37s3.28,6.05,2,12-2.63,9.18,2.3,12.79,2.62,2.3,6.23,8.2,3.93,3.28,10.82,5.91,6.57-3.61,10.17-4.59,8.2-1,11.49-5.91,5.57-5.53,4.59-11.79-3.48-8.87.23-13.14,4.36-9.19,1.41-15.09-3-9.58.32-14.14,5.91-6,5.91-13.17c0,0-6.23-.9-6.23-5.82s5.9-3.28,6.23,0c0,0-1.31-3.51,4.59-7s6.56-10.39,2.3-14-6.89-6.89-7.87-10.82S329.72,291.08,324.63,290.48Z" transform="translate(-45.34 -47)" fill="#df7644"/><path id="Path_114" data-name="Path 114" d="M430.92,90.39c-3.94,5.9-8.53,4.26-12.8,8.86s-3.93,11.15-3.93,13.12c0,0-1.65-3.28-3.94,0s2.62,9.51,4.26,6.23c0,0-.65,6.89,2.3,11.48s7.87,8.53,14.11,8.53,14.43-5.25,17.06-17.71c0,0,2.62.33,3.93-4.27s-1.31-6.89-3.61-5.25a6.25,6.25,0,0,1-3.6-5.25c-.33-3.93,1.64-7.21-3-9.51S432.23,94.32,430.92,90.39Z" transform="translate(-45.34 -47)" fill="#f0aa89"/><path id="Path_115" data-name="Path 115" d="M436.08,134.18c-1,3.69.5,9.6,5.42,9.6s8.85-4.43,16.73-15,9.84-12.06,10.83-14.27a181.59,181.59,0,0,1,10.52-19.15c6-9.64,11.62-16.53,11.62-19.48s-1-6.15-1-9.1a11.61,11.61,0,0,1,2.21-5.91V51.27c0-5.42,3.94-5.42,4.18-1.48s0,10.58,0,10.58.74,3,2-2.46,1.23-9.1,3.69-9.1S505,53,503.5,56.19a11.91,11.91,0,0,0-1.23,5.66s4.29,2.21,2.15,7.87-5.84,6.89-7.56,13.29-6.15,20.17-9.84,26.57-6.15,6.14-7.88,12.79-11.07,21.16-16,28.3-6.39,5.41-7.38,13.78-1.72,21.07-6.89,24.76-44.53-5.57-44.53-5.57-2.21,4.92-7.14,13.28-5.41,5.17-7.13,12.06-14,23.13-18.7,27.8-5.17,3.69-6.4,6.15S356.86,253,356.86,253s-2.46-2-1.23-7.13a48.63,48.63,0,0,1-7.13.49c-6.4.25-10.34,1-7.38-2s11.31-4.43,17.22-6.14,7.13-9.6,12.79-23.38S381,188.8,385.4,175.52s10.34-27.81,20.92-29.53,11.69-.73,14.27-5.16a14.69,14.69,0,0,0,2-8.62Z" transform="translate(-45.34 -47)" fill="#f0aa89"/><path id="Path_116" data-name="Path 116" d="M399.18,237.52c-1.23,7.14,1.72,20.87,4.67,35.41s1.48,21.89,1,30.52-3.45,22.15-.74,26.58,12,9.05,15.25,8.71,1-9.94,0-22,1.5-14.76,3.21-25.09,6.88-37.89,6.88-51.92S420.83,220.3,411.72,224,399.18,237.52,399.18,237.52Z" transform="translate(-45.34 -47)" fill="#f0aa89"/><path id="Path_117" data-name="Path 117" d="M431.65,266.56c.74,10.77,2,26.57,1.73,34.44s-2.22,15.5-1.73,31.13,5.17,38,5.17,47.11-3.2,21,0,32.63,6.4,3.84,9.11,0,6.39-7.53,5.66-16.14-3.45-10.83-1.48-24.36,4.43-30.26,4.67-47,1-22.39,1.48-30.76S458,256.69,459,244.41,431.65,266.56,431.65,266.56Z" transform="translate(-45.34 -47)" fill="#f0aa89"/><ellipse id="Ellipse_10" data-name="Ellipse 10" cx="393.28" cy="69.55" rx="1.64" ry="2.71"/><ellipse id="Ellipse_11" data-name="Ellipse 11" cx="378.18" cy="68.4" rx="1.64" ry="2.71"/><path id="Path_118" data-name="Path 118" d="M425.16,127.05h11.15s-.08,3.6-5.57,3.69S425.16,127.05,425.16,127.05Z" transform="translate(-45.34 -47)" fill="#fafafa"/><path id="Path_119" data-name="Path 119" d="M435.1,107.28l.49,1.56a17,17,0,0,1,3.77,0,10.53,10.53,0,0,1,2.71.66s-1.64-2.3-3.44-2.55A8.77,8.77,0,0,0,435.1,107.28Z" transform="translate(-45.34 -47)"/><path id="Path_120" data-name="Path 120" d="M427,107.28l-.5,1.56a17,17,0,0,0-3.77,0,10.53,10.53,0,0,0-2.71.66s1.64-2.3,3.45-2.55A8.81,8.81,0,0,1,427,107.28Z" transform="translate(-45.34 -47)"/><path id="Path_121" data-name="Path 121" d="M405.33,144.27s-1.23,6.89-2.46,17-.49,18.45,1.48,22.39,6.4,12.79,3.44,20.42-18.45,33.21-12.54,43.79c0,0,.73,3.45,4.18-2.7s9.35-12.06,17-9.11,10.34,5.41,11.81,17-1.23,23.62,7.14,25.84,14.52,2,19.68-3,3.69-8.61,5.66-21.15,1.23-20.67-4.92-32.73-9.59-13.53-8.36-21.4a59.65,59.65,0,0,1,2.7-11.57s3.82-3.24,4.53-11.58l.71-8.34s-13.14,2.45-21.86-.75-16.33-9.41-17.33-25.83Z" transform="translate(-45.34 -47)" fill="#2082ab"/><g id="Group_30" data-name="Group 30"><circle id="Ellipse_12" data-name="Ellipse 12" cx="586.44" cy="278.82" r="11.29" fill="none" stroke="#fafafa" stroke-miterlimit="10" stroke-width="2.67"/><path id="Path_122" data-name="Path 122" d="M628.08,325.16l3.71,4.21,5.8-7.1" transform="translate(-45.34 -47)" fill="none" stroke="#fafafa" stroke-miterlimit="10" stroke-width="2.67"/></g><path id="Path_123" data-name="Path 123" d="M306.59,207.67l9.19-8.77H345s7.21,1.58,8.2-6.1,0-18.51,0-18.51,1-6.56-6.56-6.89-31.5,0-31.5,0-4.43,0-5.82,7.55-4.3,31.82-4.3,31.82S304.81,209.38,306.59,207.67Z" transform="translate(-45.34 -47)" fill="#1f82ab"/><g id="Group_31" data-name="Group 31"><circle id="Ellipse_13" data-name="Ellipse 13" cx="285.4" cy="136.55" r="11.29" fill="none" stroke="#fafafa" stroke-miterlimit="10" stroke-width="2.67"/><path id="Path_124" data-name="Path 124" d="M327,182.88l3.71,4.22,5.8-7.1" transform="translate(-45.34 -47)" fill="none" stroke="#fafafa" stroke-miterlimit="10" stroke-width="2.67"/></g><path id="Path_125" data-name="Path 125" d="M360.65,87.41l-9.19-8.77h-29.2s-7.21,1.58-8.2-6.1,0-18.5,0-18.5-1-6.57,6.56-6.89,31.5,0,31.5,0,4.43,0,5.82,7.54,4.31,31.82,4.31,31.82S362.43,89.12,360.65,87.41Z" transform="translate(-45.34 -47)" fill="url(#linear-gradient)"/><g id="Group_34" data-name="Group 34"><g id="Group_32" data-name="Group 32"><circle id="Ellipse_14" data-name="Ellipse 14" cx="289.29" cy="15.97" r="11.29" fill="none" stroke="#fafafa" stroke-miterlimit="10" stroke-width="2.67"/></g><g id="Group_33" data-name="Group 33"><path id="Path_126" data-name="Path 126" d="M338,58c-.58-1.48-1.89-2-4.68,0s-4.1,4.43-.66,4.59,7.71-.82,7.55,2.3-10.17,3.94-11.16,0" transform="translate(-45.34 -47)" fill="none" stroke="#fafafa" stroke-miterlimit="10" stroke-width="2.67"/><line id="Line_1" data-name="Line 1" x1="289.29" y1="7.94" x2="289.29" y2="23.68" fill="none" stroke="#fafafa" stroke-miterlimit="10" stroke-width="2.67"/></g></g><path id="Path_127" data-name="Path 127" d="M131.24,400.15A98.21,98.21,0,0,1,132.65,382a22.53,22.53,0,0,0-2.64,9.06,89.59,89.59,0,0,0,0,10.62Z" transform="translate(-45.34 -47)" fill="#94322f"/><path id="Path_128" data-name="Path 128" d="M182,429.18s-.19-3.19-.68-7.38.82-6.48,0-8.77a36.5,36.5,0,0,1-2-12.47c.12-5.41-.12-8.2,0-11.62-1,11.84-1.35,19.8,0,22.92s.8,4.94.94,9.7a28.37,28.37,0,0,0,.82,5.18c.2,1,.36,2,.46,3A4.07,4.07,0,0,0,182,429.18Z" transform="translate(-45.34 -47)" fill="#94322f"/><path id="Path_129" data-name="Path 129" d="M311.48,474.66c1.09,12.84,2.54,23.17,2.54,23.17a85.69,85.69,0,0,1-4.65-23.17,67.43,67.43,0,0,1-11.85-1.19l14.71-.49Z" transform="translate(-45.34 -47)" fill="#196787"/><path id="Path_130" data-name="Path 130" d="M450.11,189.05c-5.41,2.46-11.93.37-14.4-1.29C435.71,187.76,444,190.4,450.11,189.05Z" transform="translate(-45.34 -47)" fill="#196787"/><path id="Path_131" data-name="Path 131" d="M406,187.09c3.28,1.1,7,2.59,15.09,0C421.08,187.09,412.8,188.58,406,187.09Z" transform="translate(-45.34 -47)" fill="#196787"/></g><g id="Group_37" data-name="Group 37"><g id="Group_36" data-name="Group 36"><path id="Path_132" data-name="Path 132" d="M611.91,360.31l-10.38-.72a3.07,3.07,0,0,0-3.26,2.78l-2.38,25.85a3.06,3.06,0,0,0,2.78,3.33h0l9.59.85a3.08,3.08,0,0,0,3.31-2.69l3.17-26a3.07,3.07,0,0,0-2.68-3.41Z" transform="translate(-45.34 -47)" fill="#fff"/><path id="Path_133" data-name="Path 133" d="M546.74,567.64c1,17.57-.66,45.88,2,55.32s3.9,11.06,9.1,12.36,7.81,4.55,7.81,7.81H539.9a21.29,21.29,0,0,1,0-8.78c1-5.21-3.26-22.78-6.83-36.45s-2.61-35.79-2.61-35.79Z" transform="translate(-45.34 -47)" fill="#ffc3ab"/><path id="Path_134" data-name="Path 134" d="M559.89,574.66c-5.67,11.2-16.08,36.27-21.28,46.67s-6.1,18.21-8.26,21.8-4.35,4.52-5.69-2.46,0-24.23,0-24.23,1.67-2,5.69-1.3a42,42,0,0,0,6.95-19.2c1.31-11.71,7.81-24.4,7.81-24.4Z" transform="translate(-45.34 -47)" fill="#ffc3ab"/><path id="Path_135" data-name="Path 135" d="M539.51,652.56h29l1.62-9.43H537.43Z" transform="translate(-45.34 -47)" fill="#302d4f"/><path id="Path_136" data-name="Path 136" d="M515.13,617.12l-.27,29,9.42,1.72.31-32.74Z" transform="translate(-45.34 -47)" fill="#302d4f"/><path id="Path_137" data-name="Path 137" d="M555.7,633.5v15.37h5V636.36S559.45,630.06,555.7,633.5Z" transform="translate(-45.34 -47)" fill="#302d4f"/><path id="Path_138" data-name="Path 138" d="M533,632.47H518.82v5h11.33a7.11,7.11,0,0,0,3.17-.69c1.08-.52,2.13-1.38,1.85-2.66A2.22,2.22,0,0,0,533,632.47Z" transform="translate(-45.34 -47)" fill="#302d4f"/><path id="Path_139" data-name="Path 139" d="M558.78,370.61a8.16,8.16,0,0,0,3.09,8c4.23,3.41,9.27,5.36,13.34,9.76s11.88,23.75,11.88,23.75,10.73-11.06,14.31-14.8,3.91-5.33,1.79-6.65-4.71-2.14-5.37-4.74a8,8,0,0,1-1.46-4.72s-2-5.49,1.79-5.19S611,378.9,611,378.9s.33-3.87,3.75-4.7c0,0-.17,2.91,0,7.63s-.49,7.65-2,12.53S600.92,422,595.22,427.87s-10.09,3.74-21.47-10.41l-44.09-2s-.66,7.72-2,17-2.27,11.55-4.39,24.08-7.65,22.12-8.78,29,3.41,11.38,3.41,15.45c0,0-3.41,0-4.55-2.44a10.93,10.93,0,0,0,2.44,7s-4.23,3.41-8.63,1.95-1-16.76,0-24.08,4.72-29,5.7-39.81,3.25-31.61,4.39-41.05,4.23-11.22,11.88-16.92,12.69-7,12.52-21l-9.92-13.66,6.67-23.27,18.06-6,8.37,3.35,3.75,4.54c3.34,6.1,5.87,11.66,4.19,23.31C571.25,363.64,567.15,370.61,558.78,370.61Z" transform="translate(-45.34 -47)" fill="#ffc3ab"/><path id="Path_140" data-name="Path 140" d="M532.58,383.15a18.16,18.16,0,0,0,14.32,15.93c13.51,3.09,20.76-4.69,22.66-15.36a5.43,5.43,0,0,1,2.05.84c1.12.78,1.19,1.51,1.19,1.51s-1.61,5,0,9.11,6,12.32,2.59,24.3-4.9,16-.83,30.69,3.58,38.23.9,63.37-9.41,52.47-15.57,64.92c0,0-20.8,8.29-31.3-5.12,0,0,.74-13.67,0-25.39s-7.67-34.77-5.61-67.84,12-37.1,10.74-46.86a95.37,95.37,0,0,0-4.07-17.81s3.33-8.79,1.87-15.62-2.36-14.24-2.36-14.24A4.91,4.91,0,0,1,532.58,383.15Z" transform="translate(-45.34 -47)" fill="#9bb4da"/><ellipse id="Ellipse_15" data-name="Ellipse 15" cx="524.51" cy="301.2" rx="0.98" ry="1.24" fill="#212e54"/><ellipse id="Ellipse_16" data-name="Ellipse 16" cx="512.73" cy="301.2" rx="0.98" ry="1.24" fill="#212e54"/><path id="Path_141" data-name="Path 141" d="M557.13,360.11h8.81s-.06,3.58-4.4,3.66S557.13,360.11,557.13,360.11Z" transform="translate(-45.34 -47)" fill="#fafafa"/><path id="Path_142" data-name="Path 142" d="M567.15,341.91l.42,1.54a12.55,12.55,0,0,1,3.24,0,8.5,8.5,0,0,1,2.33.65s-1.41-2.27-3-2.52A6.78,6.78,0,0,0,567.15,341.91Z" transform="translate(-45.34 -47)" fill="#212e54"/><path id="Path_143" data-name="Path 143" d="M561.54,341.91l-.56,1.54a21.86,21.86,0,0,0-4.28,0,13.9,13.9,0,0,0-3.06.65s1.85-2.27,3.9-2.52A11.26,11.26,0,0,1,561.54,341.91Z" transform="translate(-45.34 -47)" fill="#212e54"/><path id="Path_144" data-name="Path 144" d="M533.56,420.23a13.86,13.86,0,0,0,17.41,0S544.62,424.3,533.56,420.23Z" transform="translate(-45.34 -47)" fill="#8398b8"/><path id="Path_145" data-name="Path 145" d="M559.14,420.23a10.85,10.85,0,0,0,15.12,0S568.75,424.3,559.14,420.23Z" transform="translate(-45.34 -47)" fill="#8398b8"/><path id="Path_146" data-name="Path 146" d="M543.16,347s-1.85-6.39-7.38-2.85,2.2,12.76,6.48,8.15a31.5,31.5,0,0,1,1,7.54c.06,1.52.54,4.48-.42,5.71s-3.86,1.23-5.28,1.26c-4.27.08-8.72.07-12.54-1.83-8.76-4.35-7.43-13.78-7.43-21.9,0-11.08,6.51-24.72,24.63-26.67s23.54,3.28,27.6,8.82,10.4,10.63,0,9.62-14.66-3.16-16.22-3.93a5.34,5.34,0,0,0,3.46,2.46s-1.33,1.69-5.79-.15C551.31,333.19,551.42,343.28,543.16,347Z" transform="translate(-45.34 -47)" fill="#1f82ab"/></g></g></g></svg>