<?xml version="1.0" encoding="utf-8"?>
<!-- Generator: Adobe Illustrator 23.0.3, SVG Export Plug-In . SVG Version: 6.00 Build 0)  -->
<svg version="1.1" id="Layer_1" xmlns="http://www.w3.org/2000/svg" xmlns:xlink="http://www.w3.org/1999/xlink" x="0px" y="0px"
	 viewBox="0 0 628 628" style="enable-background:new 0 0 628 628;" xml:space="preserve">
<style type="text/css">
	.st0{clip-path:url(#SVGID_2_);}
	.st1{fill:#9CACD8;}
	.st2{clip-path:url(#SVGID_4_);}
	.st3{clip-path:url(#SVGID_6_);}
	.st4{fill:url(#SVGID_7_);}
	.st5{clip-path:url(#SVGID_9_);}
	.st6{fill:url(#SVGID_10_);}
	.st7{fill:#F2F6F9;}
	.st8{clip-path:url(#SVGID_12_);}
	.st9{fill:#FFFFFF;}
	.st10{fill:url(#SVGID_13_);}
	.st11{clip-path:url(#SVGID_15_);}
	.st12{fill:url(#SVGID_16_);}
	.st13{clip-path:url(#SVGID_18_);}
	.st14{fill:url(#SVGID_19_);}
	.st15{clip-path:url(#SVGID_21_);}
	.st16{fill:url(#SVGID_22_);}
	.st17{clip-path:url(#SVGID_24_);}
	.st18{fill:url(#SVGID_25_);}
	.st19{clip-path:url(#SVGID_27_);}
	.st20{fill:url(#SVGID_28_);}
	.st21{clip-path:url(#SVGID_30_);}
	.st22{fill:url(#SVGID_31_);}
	.st23{clip-path:url(#SVGID_33_);}
	.st24{fill:url(#SVGID_34_);}
	.st25{clip-path:url(#SVGID_36_);}
	.st26{fill:url(#SVGID_37_);}
	.st27{clip-path:url(#SVGID_39_);}
	.st28{fill:url(#SVGID_40_);}
	.st29{clip-path:url(#SVGID_42_);}
	.st30{fill:url(#SVGID_43_);}
	.st31{fill:url(#SVGID_44_);}
	.st32{clip-path:url(#SVGID_46_);}
	.st33{fill:url(#SVGID_47_);}
	.st34{fill:#F7F7F7;}
	.st35{fill:url(#SVGID_48_);}
	.st36{fill:url(#SVGID_49_);}
	.st37{fill:url(#SVGID_50_);}
</style>
<g>
	<defs>
		<polygon id="SVGID_1_" points="51.5,615.9 86.6,696 263,696 739,475.6 674,327.6 		"/>
	</defs>
	<clipPath id="SVGID_2_">
		<use xlink:href="#SVGID_1_"  style="overflow:visible;"/>
	</clipPath>
	<g class="st0">
		<path class="st1" d="M312.6,121.8c121.7,0,220.4,101.3,220.4,226.4s-98.7,226.4-220.4,226.4S92.2,473.1,92.2,348.1
			S190.9,121.8,312.6,121.8"/>
	</g>
</g>
<g>
	<defs>
		<rect id="SVGID_3_" x="-20.6" y="33.2" width="682.9" height="416.4"/>
	</defs>
	<clipPath id="SVGID_4_">
		<use xlink:href="#SVGID_3_"  style="overflow:visible;"/>
	</clipPath>
	<g class="st2">
		<path class="st1" d="M324.6,92.2C446.4,92.2,545,193.5,545,318.5s-98.7,226.4-220.4,226.4S104.2,443.6,104.2,318.5
			S202.9,92.2,324.6,92.2"/>
	</g>
</g>
<g>
	<defs>
		<path id="SVGID_5_" d="M146.7,259.3v224.7c0,11.2,8.8,20.3,19.7,20.3h332c10.9,0,19.7-9.1,19.8-20.3V259.3H146.7z"/>
	</defs>
	<clipPath id="SVGID_6_">
		<use xlink:href="#SVGID_5_"  style="overflow:visible;"/>
	</clipPath>
	<g class="st3">
		
			<linearGradient id="SVGID_7_" gradientUnits="userSpaceOnUse" x1="-930.2327" y1="226.7995" x2="-929.049" y2="226.7995" gradientTransform="matrix(969.3561 54.1954 54.1954 -969.3561 889517.5 270631.4375)">
			<stop  offset="0" style="stop-color:#E1E4EE"/>
			<stop  offset="1.000000e-02" style="stop-color:#E1E4EE"/>
			<stop  offset="0.44" style="stop-color:#DFE2ED"/>
			<stop  offset="0.6" style="stop-color:#D7DDEB"/>
			<stop  offset="0.71" style="stop-color:#CED3E7"/>
			<stop  offset="0.81" style="stop-color:#BDC6E2"/>
			<stop  offset="0.88" style="stop-color:#A6B4DB"/>
			<stop  offset="0.91" style="stop-color:#9CACD8"/>
			<stop  offset="1" style="stop-color:#9CACD8"/>
		</linearGradient>
		<polygon class="st4" points="133.4,503.4 147.8,237.9 531.5,259.9 517,525.4 		"/>
	</g>
</g>
<g>
	<defs>
		<path id="SVGID_8_" d="M317,106.8L146.7,259.3l127.1,122.4h114.6l129.9-122.6L347.1,106.9c-4.2-3.8-9.6-5.9-15.2-5.9
			C326.4,101,321.1,103.1,317,106.8"/>
	</defs>
	<clipPath id="SVGID_9_">
		<use xlink:href="#SVGID_8_"  style="overflow:visible;"/>
	</clipPath>
	<g class="st5">
		
			<linearGradient id="SVGID_10_" gradientUnits="userSpaceOnUse" x1="-929.4258" y1="229.6419" x2="-928.2036" y2="229.6419" gradientTransform="matrix(76.4276 245.0795 245.0795 -76.4276 15035.8047 245415.4375)">
			<stop  offset="0" style="stop-color:#E1E4EE"/>
			<stop  offset="1.000000e-02" style="stop-color:#E1E4EE"/>
			<stop  offset="0.44" style="stop-color:#DFE2ED"/>
			<stop  offset="0.6" style="stop-color:#D7DDEB"/>
			<stop  offset="0.71" style="stop-color:#CED3E7"/>
			<stop  offset="0.81" style="stop-color:#BDC6E2"/>
			<stop  offset="0.88" style="stop-color:#A6B4DB"/>
			<stop  offset="0.91" style="stop-color:#9CACD8"/>
			<stop  offset="1" style="stop-color:#9CACD8"/>
		</linearGradient>
		<polygon class="st6" points="69.1,125.9 485.3,-7.4 595.8,356.7 179.6,490 		"/>
	</g>
</g>
<path class="st7" d="M273.8,381.6L152.9,498.6c3.7,3.5,8.5,5.5,13.5,5.5h332c4.4,0,8.6-1.5,12-4.3l-122-118.2H273.8z"/>
<g>
	<defs>
		<path id="SVGID_11_" d="M168.1,55.3l-21.4,204l127.1,122.4h114.6l129.9-122.6V54.5c-4.1-3.6-80.6-5.4-161.1-5.4
			C267.3,49.1,172.7,51.2,168.1,55.3"/>
	</defs>
	<clipPath id="SVGID_12_">
		<use xlink:href="#SVGID_11_"  style="overflow:visible;"/>
	</clipPath>
	<g class="st8">
		<polygon class="st9" points="434.1,150.2 196,150.2 196,420.4 472.1,420.4 472.1,194.3 		"/>
	</g>
</g>
<linearGradient id="SVGID_13_" gradientUnits="userSpaceOnUse" x1="481.2519" y1="470.4777" x2="406.4974" y2="436.7393" gradientTransform="matrix(1 0 0 -1 0 630)">
	<stop  offset="0" style="stop-color:#E1E4EE"/>
	<stop  offset="1.000000e-02" style="stop-color:#E1E4EE"/>
	<stop  offset="0.44" style="stop-color:#DFE2ED"/>
	<stop  offset="0.6" style="stop-color:#D7DDEB"/>
	<stop  offset="0.71" style="stop-color:#CED3E7"/>
	<stop  offset="0.81" style="stop-color:#BDC6E2"/>
	<stop  offset="0.88" style="stop-color:#A6B4DB"/>
	<stop  offset="0.91" style="stop-color:#9CACD8"/>
	<stop  offset="1" style="stop-color:#9CACD8"/>
</linearGradient>
<path class="st10" d="M434.1,175.9c0,10.1,8,18.3,17.9,18.3h20.1l-38-44.1L434.1,175.9z"/>
<g>
	<defs>
		<path id="SVGID_14_" d="M434.1,175.9c0,10.1,8,18.3,17.9,18.3h20.1l-38-44.1L434.1,175.9z"/>
	</defs>
	<clipPath id="SVGID_15_">
		<use xlink:href="#SVGID_14_"  style="overflow:visible;"/>
	</clipPath>
	<g class="st11">
		
			<linearGradient id="SVGID_16_" gradientUnits="userSpaceOnUse" x1="413.17" y1="457.8283" x2="493.0773" y2="457.8283" gradientTransform="matrix(1 0 0 -1 -3.126197e-02 630.0038)">
			<stop  offset="0" style="stop-color:#E1E4EE"/>
			<stop  offset="1.000000e-02" style="stop-color:#E1E4EE"/>
			<stop  offset="0.44" style="stop-color:#DFE2ED"/>
			<stop  offset="0.6" style="stop-color:#D7DDEB"/>
			<stop  offset="0.71" style="stop-color:#CED3E7"/>
			<stop  offset="0.81" style="stop-color:#BDC6E2"/>
			<stop  offset="0.88" style="stop-color:#A6B4DB"/>
			<stop  offset="0.91" style="stop-color:#9CACD8"/>
			<stop  offset="1" style="stop-color:#9CACD8"/>
		</linearGradient>
		<polygon class="st12" points="413.1,176.8 449.1,131.1 493,167.5 457.1,213.3 		"/>
	</g>
</g>
<g>
	<defs>
		<path id="SVGID_17_" d="M229.8,183.1c-1.8,0-3.2,1.5-3.2,3.3c0,1.8,1.4,3.3,3.2,3.3c0,0,0,0,0,0h109.7c1.7,0,3.2-1.5,3.2-3.3
			c0-1.8-1.4-3.3-3.2-3.3c0,0,0,0,0,0H229.8z"/>
	</defs>
	<clipPath id="SVGID_18_">
		<use xlink:href="#SVGID_17_"  style="overflow:visible;"/>
	</clipPath>
	<g class="st13">
		
			<linearGradient id="SVGID_19_" gradientUnits="userSpaceOnUse" x1="-931.7441" y1="227.1786" x2="-930.5617" y2="227.1786" gradientTransform="matrix(-1129.33 0 0 1129.33 -1051448.5 -256373.2344)">
			<stop  offset="0" style="stop-color:#E1E4EE"/>
			<stop  offset="1.000000e-02" style="stop-color:#E1E4EE"/>
			<stop  offset="0.44" style="stop-color:#DFE2ED"/>
			<stop  offset="0.6" style="stop-color:#D7DDEB"/>
			<stop  offset="0.71" style="stop-color:#CED3E7"/>
			<stop  offset="0.81" style="stop-color:#BDC6E2"/>
			<stop  offset="0.88" style="stop-color:#A6B4DB"/>
			<stop  offset="0.91" style="stop-color:#9CACD8"/>
			<stop  offset="1" style="stop-color:#9CACD8"/>
		</linearGradient>
		<rect x="226.6" y="183.1" class="st14" width="116.1" height="6.6"/>
	</g>
</g>
<g>
	<defs>
		<path id="SVGID_20_" d="M229.8,273.2c-1.8,0-3.2,1.5-3.2,3.3c0,1.8,1.4,3.3,3.2,3.3c0,0,0,0,0,0h211.6c1.7,0,3.1-1.5,3.2-3.3
			c0-1.8-1.4-3.3-3.1-3.3c0,0,0,0,0,0L229.8,273.2z"/>
	</defs>
	<clipPath id="SVGID_21_">
		<use xlink:href="#SVGID_20_"  style="overflow:visible;"/>
	</clipPath>
	<g class="st15">
		
			<linearGradient id="SVGID_22_" gradientUnits="userSpaceOnUse" x1="-931.7441" y1="227.1926" x2="-930.5617" y2="227.1926" gradientTransform="matrix(-1129.33 0 0 1129.33 -1051448.5 -256298.9844)">
			<stop  offset="0" style="stop-color:#E1E4EE"/>
			<stop  offset="1.000000e-02" style="stop-color:#E1E4EE"/>
			<stop  offset="0.44" style="stop-color:#DFE2ED"/>
			<stop  offset="0.6" style="stop-color:#D7DDEB"/>
			<stop  offset="0.71" style="stop-color:#CED3E7"/>
			<stop  offset="0.81" style="stop-color:#BDC6E2"/>
			<stop  offset="0.88" style="stop-color:#A6B4DB"/>
			<stop  offset="0.91" style="stop-color:#9CACD8"/>
			<stop  offset="1" style="stop-color:#9CACD8"/>
		</linearGradient>
		<rect x="226.6" y="273.2" class="st16" width="217.9" height="6.6"/>
	</g>
</g>
<g>
	<defs>
		<path id="SVGID_23_" d="M229.8,291.6c-1.8,0-3.2,1.5-3.2,3.3c0,1.8,1.4,3.3,3.2,3.3c0,0,0,0,0,0H423c1.8,0,3.2-1.5,3.2-3.3
			c0-1.8-1.4-3.3-3.2-3.3H229.8z"/>
	</defs>
	<clipPath id="SVGID_24_">
		<use xlink:href="#SVGID_23_"  style="overflow:visible;"/>
	</clipPath>
	<g class="st17">
		
			<linearGradient id="SVGID_25_" gradientUnits="userSpaceOnUse" x1="-931.7441" y1="227.1955" x2="-930.5617" y2="227.1955" gradientTransform="matrix(-1129.33 0 0 1129.33 -1051448.5 -256283.7969)">
			<stop  offset="0" style="stop-color:#E1E4EE"/>
			<stop  offset="1.000000e-02" style="stop-color:#E1E4EE"/>
			<stop  offset="0.44" style="stop-color:#DFE2ED"/>
			<stop  offset="0.6" style="stop-color:#D7DDEB"/>
			<stop  offset="0.71" style="stop-color:#CED3E7"/>
			<stop  offset="0.81" style="stop-color:#BDC6E2"/>
			<stop  offset="0.88" style="stop-color:#A6B4DB"/>
			<stop  offset="0.91" style="stop-color:#9CACD8"/>
			<stop  offset="1" style="stop-color:#9CACD8"/>
		</linearGradient>
		<rect x="226.6" y="291.6" class="st18" width="199.6" height="6.6"/>
	</g>
</g>
<g>
	<defs>
		<path id="SVGID_26_" d="M229.8,310.1c-1.8,0-3.2,1.5-3.2,3.3c0,1.8,1.4,3.3,3.2,3.3h211.6c1.7,0,3.1-1.5,3.2-3.3
			c0-1.8-1.4-3.3-3.1-3.3c0,0,0,0,0,0L229.8,310.1z"/>
	</defs>
	<clipPath id="SVGID_27_">
		<use xlink:href="#SVGID_26_"  style="overflow:visible;"/>
	</clipPath>
	<g class="st19">
		
			<linearGradient id="SVGID_28_" gradientUnits="userSpaceOnUse" x1="-931.7441" y1="227.1984" x2="-930.5617" y2="227.1984" gradientTransform="matrix(-1129.33 0 0 1129.33 -1051448.5 -256268.6094)">
			<stop  offset="0" style="stop-color:#E1E4EE"/>
			<stop  offset="1.000000e-02" style="stop-color:#E1E4EE"/>
			<stop  offset="0.44" style="stop-color:#DFE2ED"/>
			<stop  offset="0.6" style="stop-color:#D7DDEB"/>
			<stop  offset="0.71" style="stop-color:#CED3E7"/>
			<stop  offset="0.81" style="stop-color:#BDC6E2"/>
			<stop  offset="0.88" style="stop-color:#A6B4DB"/>
			<stop  offset="0.91" style="stop-color:#9CACD8"/>
			<stop  offset="1" style="stop-color:#9CACD8"/>
		</linearGradient>
		<rect x="226.6" y="310.1" class="st20" width="217.9" height="6.6"/>
	</g>
</g>
<g>
	<defs>
		<path id="SVGID_29_" d="M229.8,328.6c-1.8,0-3.2,1.5-3.2,3.3c0,1.8,1.4,3.3,3.2,3.3h109.7c1.7,0,3.2-1.5,3.2-3.3
			c0-1.8-1.4-3.3-3.2-3.3c0,0,0,0,0,0L229.8,328.6z"/>
	</defs>
	<clipPath id="SVGID_30_">
		<use xlink:href="#SVGID_29_"  style="overflow:visible;"/>
	</clipPath>
	<g class="st21">
		
			<linearGradient id="SVGID_31_" gradientUnits="userSpaceOnUse" x1="-931.7441" y1="227.2013" x2="-930.5617" y2="227.2013" gradientTransform="matrix(-1129.33 0 0 1129.33 -1051448.5 -256253.4219)">
			<stop  offset="0" style="stop-color:#E1E4EE"/>
			<stop  offset="1.000000e-02" style="stop-color:#E1E4EE"/>
			<stop  offset="0.44" style="stop-color:#DFE2ED"/>
			<stop  offset="0.6" style="stop-color:#D7DDEB"/>
			<stop  offset="0.71" style="stop-color:#CED3E7"/>
			<stop  offset="0.81" style="stop-color:#BDC6E2"/>
			<stop  offset="0.88" style="stop-color:#A6B4DB"/>
			<stop  offset="0.91" style="stop-color:#9CACD8"/>
			<stop  offset="1" style="stop-color:#9CACD8"/>
		</linearGradient>
		<rect x="226.6" y="328.6" class="st22" width="116.1" height="6.6"/>
	</g>
</g>
<g>
	<defs>
		<path id="SVGID_32_" d="M229.8,203.8c-1.8,0-3.2,1.5-3.2,3.3c0,1.8,1.4,3.3,3.2,3.3h54.9c1.7,0,3.2-1.5,3.2-3.3
			c0-1.8-1.4-3.3-3.2-3.3l0,0H229.8z"/>
	</defs>
	<clipPath id="SVGID_33_">
		<use xlink:href="#SVGID_32_"  style="overflow:visible;"/>
	</clipPath>
	<g class="st23">
		
			<linearGradient id="SVGID_34_" gradientUnits="userSpaceOnUse" x1="-931.7441" y1="227.1818" x2="-930.5617" y2="227.1818" gradientTransform="matrix(-1129.33 0 0 1129.33 -1051448.5 -256356.1094)">
			<stop  offset="0" style="stop-color:#E1E4EE"/>
			<stop  offset="1.000000e-02" style="stop-color:#E1E4EE"/>
			<stop  offset="0.44" style="stop-color:#DFE2ED"/>
			<stop  offset="0.6" style="stop-color:#D7DDEB"/>
			<stop  offset="0.71" style="stop-color:#CED3E7"/>
			<stop  offset="0.81" style="stop-color:#BDC6E2"/>
			<stop  offset="0.88" style="stop-color:#A6B4DB"/>
			<stop  offset="0.91" style="stop-color:#9CACD8"/>
			<stop  offset="1" style="stop-color:#9CACD8"/>
		</linearGradient>
		<rect x="226.6" y="203.8" class="st24" width="61.2" height="6.6"/>
	</g>
</g>
<g>
	<defs>
		<path id="SVGID_35_" d="M134.9,79.4c0,0-8.4-10.7-27.5-8.1s-19,18.3-19,18.3s-29.9-8.5-41.5,21.6h114.2c6.3-7.3,8.5-17.5,5.8-26.8
			c-2.6-9.6-10.9-16.3-18.7-16.3C142.7,68.1,137.5,71.4,134.9,79.4"/>
	</defs>
	<clipPath id="SVGID_36_">
		<use xlink:href="#SVGID_35_"  style="overflow:visible;"/>
	</clipPath>
	<g class="st25">
		
			<linearGradient id="SVGID_37_" gradientUnits="userSpaceOnUse" x1="-932.0296" y1="226.4335" x2="-930.8151" y2="226.4335" gradientTransform="matrix(-495.0361 -498.3303 -498.3303 495.0361 -348170.7188 -576189.9375)">
			<stop  offset="0" style="stop-color:#E1E4EE"/>
			<stop  offset="1.000000e-02" style="stop-color:#E1E4EE"/>
			<stop  offset="0.44" style="stop-color:#DFE2ED"/>
			<stop  offset="0.6" style="stop-color:#D7DDEB"/>
			<stop  offset="0.71" style="stop-color:#CED3E7"/>
			<stop  offset="0.81" style="stop-color:#BDC6E2"/>
			<stop  offset="0.88" style="stop-color:#A6B4DB"/>
			<stop  offset="0.91" style="stop-color:#9CACD8"/>
			<stop  offset="1" style="stop-color:#9CACD8"/>
		</linearGradient>
		<polygon class="st26" points="25.8,89.5 109.5,4.2 192.3,89.8 108.6,175.1 		"/>
	</g>
</g>
<g>
	<defs>
		<path id="SVGID_38_" d="M170.5,44.8c-2,6.9-0.4,14.4,4.3,19.8h84.1c-8.5-22.2-30.5-15.9-30.5-15.9s0-11.5-14.1-13.5
			c-14.1-1.9-20.2,6-20.2,6c-2-5.9-5.7-8.4-9.7-8.4C178.6,32.8,172.5,37.8,170.5,44.8"/>
	</defs>
	<clipPath id="SVGID_39_">
		<use xlink:href="#SVGID_38_"  style="overflow:visible;"/>
	</clipPath>
	<g class="st27">
		
			<linearGradient id="SVGID_40_" gradientUnits="userSpaceOnUse" x1="-930.3121" y1="228.275" x2="-929.0976" y2="228.275" gradientTransform="matrix(364.4374 -366.8625 366.8625 364.4374 255310.4844 -424241.0625)">
			<stop  offset="0" style="stop-color:#E1E4EE"/>
			<stop  offset="1.000000e-02" style="stop-color:#E1E4EE"/>
			<stop  offset="0.44" style="stop-color:#DFE2ED"/>
			<stop  offset="0.6" style="stop-color:#D7DDEB"/>
			<stop  offset="0.71" style="stop-color:#CED3E7"/>
			<stop  offset="0.81" style="stop-color:#BDC6E2"/>
			<stop  offset="0.88" style="stop-color:#A6B4DB"/>
			<stop  offset="0.91" style="stop-color:#9CACD8"/>
			<stop  offset="1" style="stop-color:#9CACD8"/>
		</linearGradient>
		<polygon class="st28" points="151.7,48.8 212.7,-14.3 274.3,48.6 213.3,111.7 		"/>
	</g>
</g>
<g>
	<defs>
		<path id="SVGID_41_" d="M89.8,259.3c0,35.7,28.3,64.7,63.1,64.7s63-29,63-64.8c0-35.7-28.2-64.7-63-64.7
			C118.1,194.5,89.8,223.5,89.8,259.3C89.8,259.2,89.8,259.3,89.8,259.3"/>
	</defs>
	<clipPath id="SVGID_42_">
		<use xlink:href="#SVGID_41_"  style="overflow:visible;"/>
	</clipPath>
	<g class="st29">
		
			<linearGradient id="SVGID_43_" gradientUnits="userSpaceOnUse" x1="-924.0909" y1="224.9744" x2="-922.9085" y2="224.9744" gradientTransform="matrix(106.6 0 0 -106.6 98598.1953 24241.498)">
			<stop  offset="0" style="stop-color:#EA04A1"/>
			<stop  offset="1" style="stop-color:#A814A8"/>
		</linearGradient>
		<rect x="89.8" y="194.5" class="st30" width="126" height="129.5"/>
	</g>
</g>
<linearGradient id="SVGID_44_" gradientUnits="userSpaceOnUse" x1="96.1142" y1="370.7139" x2="209.6231" y2="370.7139" gradientTransform="matrix(1 0 0 -1 0 630)">
	<stop  offset="0" style="stop-color:#EA04A1;stop-opacity:0.8"/>
	<stop  offset="1" style="stop-color:#A814A8"/>
</linearGradient>
<path class="st31" d="M96.1,259.3c0,32.2,25.4,58.3,56.8,58.3s56.8-26.1,56.8-58.3S184.2,201,152.9,201S96.1,227.1,96.1,259.3"/>
<g>
	<defs>
		<path id="SVGID_45_" d="M96.1,259.3c0,32.2,25.4,58.3,56.8,58.3s56.8-26.1,56.8-58.3S184.2,201,152.9,201S96.1,227.1,96.1,259.3"
			/>
	</defs>
	<clipPath id="SVGID_46_">
		<use xlink:href="#SVGID_45_"  style="overflow:visible;"/>
	</clipPath>
	<g class="st32">
		
			<linearGradient id="SVGID_47_" gradientUnits="userSpaceOnUse" x1="-919.3137" y1="220.7858" x2="-837.8235" y2="139.2956" gradientTransform="matrix(106.6 0 0 -106.6 98598.1953 24241.498)">
			<stop  offset="0" style="stop-color:#EA04A1;stop-opacity:0.8"/>
			<stop  offset="1" style="stop-color:#A814A8"/>
		</linearGradient>
		<rect x="96.1" y="200.9" class="st33" width="113.6" height="116.6"/>
	</g>
</g>
<path class="st34" d="M175.3,286.7c2.2,5.2-0.1,11.2-5.2,13.5c-5.1,2.2-10.9-0.1-13.1-5.3l0,0L175.3,286.7z"/>
<path class="st34" d="M135.8,294.5l53.7-23.7l-6.3-6c-2.1-2-3.4-4.7-3.5-7.7c-0.3-3.9-1.3-7.7-2.7-11.3
	c-6.1-14.7-20.5-22.8-33.3-19.8l-2.4-5.6c-0.9-2.2-3.4-3.2-5.6-2.3s-3.2,3.5-2.2,5.7l2.4,5.6c-11,7.5-15.1,23.7-9,38.5
	c1.5,3.6,3.5,6.9,6,9.8c1.9,2.1,3,5,3,7.9V294.5z"/>
<path class="st1" d="M513.2,166.6l15.5-15.2h49c0,0,12.1,2.7,13.7-10.5s0-32,0-32s1.6-11.3-11-11.9c-12.6-0.6-53,0-53,0
	s-7.5,0-9.8,13c-2.3,13-7.3,54.9-7.3,54.9S510.2,169.6,513.2,166.6"/>
<ellipse class="st9" cx="533.9" cy="124.7" rx="5.7" ry="5.9"/>
<ellipse class="st9" cx="555.3" cy="124.7" rx="5.7" ry="5.9"/>
<ellipse class="st9" cx="576.7" cy="124.7" rx="5.7" ry="5.9"/>
<linearGradient id="SVGID_48_" gradientUnits="userSpaceOnUse" x1="375.8392" y1="576.522" x2="740.501" y2="387.0408" gradientTransform="matrix(1 0 0 -1 0 630)">
	<stop  offset="0" style="stop-color:#E1E4EE"/>
	<stop  offset="1.000000e-02" style="stop-color:#E1E4EE"/>
	<stop  offset="0.44" style="stop-color:#DFE2ED"/>
	<stop  offset="0.6" style="stop-color:#D7DDEB"/>
	<stop  offset="0.71" style="stop-color:#CED3E7"/>
	<stop  offset="0.81" style="stop-color:#BDC6E2"/>
	<stop  offset="0.88" style="stop-color:#A6B4DB"/>
	<stop  offset="0.91" style="stop-color:#9CACD8"/>
	<stop  offset="1" style="stop-color:#9CACD8"/>
</linearGradient>
<path class="st35" d="M494.6,135.8l-15.4-15.2h-49c0,0-12.1,2.7-13.7-10.5s0-32,0-32s-1.6-11.3,11-11.9s53,0,53,0s7.5,0,9.8,13
	c2.3,13,7.3,55,7.3,55S497.7,138.9,494.6,135.8"/>
<path class="st1" d="M448.2,102.1c0-1.4,0.1-2.9,0.4-4.3c0.2-1.2,0.6-2.3,1.2-3.3c0.6-1.1,1.4-2,2.4-2.8c0.8-0.6,1.5-1.3,2.1-2.1
	c0.6-0.6,1-1.3,1.4-2c0.4-0.7,0.5-1.5,0.5-2.2c0.1-1.2-0.3-2.3-1-3.2c-0.8-0.7-1.8-1.1-2.8-1.1c-2.2,0-4,1.8-4,4c0,0.2,0,0.3,0,0.5
	h-8.4c-0.1-2.3,0.5-4.5,1.7-6.5c1.1-1.7,2.6-3,4.4-3.7c2-0.8,4.1-1.2,6.3-1.2c3.8,0,6.8,0.9,8.9,2.8c2.2,2,3.4,5,3.2,8
	c0,1.5-0.3,2.9-0.9,4.2c-0.6,1.2-1.4,2.3-2.4,3.3c-1,1-2.1,2.1-3.2,3.2c-0.9,0.8-1.6,1.7-2,2.8c-0.4,1.2-0.6,2.4-0.6,3.6
	L448.2,102.1z M447.3,110.4c0-1.2,0.4-2.4,1.3-3.2c1.9-1.7,4.8-1.7,6.8,0c1.7,1.8,1.7,4.6,0,6.4c-1.9,1.7-4.8,1.7-6.8,0
	C447.7,112.8,447.3,111.6,447.3,110.4L447.3,110.4z"/>
<linearGradient id="SVGID_49_" gradientUnits="userSpaceOnUse" x1="85.4728" y1="451.1183" x2="117.1843" y2="451.1183" gradientTransform="matrix(1 0 0 -1 0 630)">
	<stop  offset="0" style="stop-color:#EA04A1;stop-opacity:0.8"/>
	<stop  offset="1" style="stop-color:#A814A8"/>
</linearGradient>
<path class="st36" d="M101.3,162.6L101.3,162.6c3.7,6.9,9.2,12.5,15.9,16.3l0,0c-6.7,3.8-12.2,9.4-15.9,16.3l0,0
	c-3.7-6.9-9.2-12.5-15.8-16.3l0,0C92.2,175.1,97.7,169.5,101.3,162.6L101.3,162.6z"/>
<linearGradient id="SVGID_50_" gradientUnits="userSpaceOnUse" x1="63.4213" y1="422.222" x2="82.9306" y2="422.222" gradientTransform="matrix(1 0 0 -1 0 630)">
	<stop  offset="0" style="stop-color:#EA04A1;stop-opacity:0.8"/>
	<stop  offset="1" style="stop-color:#A814A8"/>
</linearGradient>
<path class="st37" d="M73.2,197.8L73.2,197.8c2.2,4.2,5.6,7.7,9.8,10l0,0c-4.1,2.3-7.5,5.8-9.8,10l0,0c-2.3-4.2-5.6-7.7-9.8-10l0,0
	C67.5,205.5,70.9,202,73.2,197.8z"/>
</svg>
