<svg id="Layer_1" data-name="Layer 1" xmlns="http://www.w3.org/2000/svg" xmlns:xlink="http://www.w3.org/1999/xlink" viewBox="0 0 669.23 478.5"><defs><clipPath id="clip-path" transform="translate(-258.74 -204.4)"><rect x="330.67" y="572.48" width="704.68" height="163.09" transform="translate(-208.46 338.52) rotate(-24.27)" fill="none"/></clipPath><clipPath id="clip-path-2" transform="translate(-258.74 -204.4)"><rect x="279.2" y="151.3" width="704.7" height="418.3" fill="none"/></clipPath><linearGradient id="linear-gradient" x1="663.6" y1="-640.74" x2="711.3" y2="-242.06" gradientTransform="matrix(1, 0, 0, -1, 0, -80)" gradientUnits="userSpaceOnUse"><stop offset="0.61" stop-color="#e0e0e0"/><stop offset="0.67" stop-color="#dadada"/><stop offset="0.75" stop-color="#c9c9c9"/><stop offset="0.84" stop-color="#acacac"/><stop offset="0.85" stop-color="#a8a8a8"/></linearGradient><clipPath id="clip-path-3" transform="translate(-258.74 -204.4)"><path d="M504.2,266.3c-17.7,89.3-49.6,258.9-49.6,258.9l401.8,23.6,55-276.8Z" fill="none"/></clipPath><clipPath id="clip-path-9" transform="translate(-258.74 -204.4)"><path d="M858.6,434.8l-7.1,33.3a10.3,10.3,0,0,1-10.7,8.2l-48.7-3.1a7.8,7.8,0,0,1-7.3-8.9v-.1c4.2-22,.9-5.3,6.9-35.7a13,13,0,0,1,13.1-10.6l40.9,1.1A13.27,13.27,0,0,1,858.6,434.8Z" fill="none"/></clipPath><linearGradient id="linear-gradient-2" x1="749.01" y1="-460.8" x2="827.62" y2="-524.5" gradientTransform="matrix(1, 0, 0, -1, 0, -80)" gradientUnits="userSpaceOnUse"><stop offset="0" stop-color="#e8068b"/><stop offset="1" stop-color="#a41bbe"/></linearGradient><clipPath id="clip-path-11" transform="translate(-258.74 -204.4)"><path d="M871.3,365.2l-7.1,33.3a10.3,10.3,0,0,1-10.7,8.2l-48.7-3.1a7.8,7.8,0,0,1-7.3-8.9v-.1c4.2-22,.9-5.3,6.9-35.7a13,13,0,0,1,13.1-10.6l40.9,1.1A13.27,13.27,0,0,1,871.3,365.2Z" fill="none"/></clipPath><clipPath id="clip-path-13" transform="translate(-258.74 -204.4)"><path d="M843.1,507.3,836,540.6a10.3,10.3,0,0,1-10.7,8.2l-48.7-3.1a7.8,7.8,0,0,1-7.3-8.9v-.1c4.2-22,.9-5.3,6.9-35.7a13,13,0,0,1,13.1-10.6l40.9,1.1A13.27,13.27,0,0,1,843.1,507.3Z" fill="none"/></clipPath><linearGradient id="linear-gradient-3" x1="431.83" y1="-372.12" x2="499.09" y2="-459.32" gradientTransform="matrix(1.01, -0.03, 0, -0.98, -20.83, -0.17)" gradientUnits="userSpaceOnUse"><stop offset="0" stop-color="#e8068b"/><stop offset="1" stop-color="#5a016b"/></linearGradient><linearGradient id="linear-gradient-4" x1="466.49" y1="-435.53" x2="942.81" y2="-495.27" gradientTransform="matrix(1.01, -0.03, -0.05, -1, -117.57, -33.89)" xlink:href="#linear-gradient-2"/><linearGradient id="linear-gradient-5" x1="447.73" y1="-400.75" x2="598.53" y2="-478.04" gradientTransform="matrix(1.01, -0.03, -0.05, -1, -117.57, -33.89)" gradientUnits="userSpaceOnUse"><stop offset="0" stop-color="#e8068b"/><stop offset="0.14" stop-color="#e2068a"/><stop offset="0.32" stop-color="#d20586"/><stop offset="0.52" stop-color="#b80480"/><stop offset="0.73" stop-color="#930378"/><stop offset="0.96" stop-color="#64016d"/><stop offset="1" stop-color="#5a016b"/></linearGradient><linearGradient id="linear-gradient-6" x1="442.09" y1="-382.68" x2="539.27" y2="-579.34" xlink:href="#linear-gradient-2"/><linearGradient id="linear-gradient-7" x1="446.41" y1="-380.54" x2="543.59" y2="-577.21" xlink:href="#linear-gradient-2"/><linearGradient id="linear-gradient-8" x1="448.77" y1="-379.38" x2="545.94" y2="-576.05" xlink:href="#linear-gradient-2"/><linearGradient id="linear-gradient-9" x1="450.35" y1="-378.6" x2="547.52" y2="-575.26" xlink:href="#linear-gradient-2"/><linearGradient id="linear-gradient-10" x1="450.9" y1="-378.32" x2="548.07" y2="-574.99" xlink:href="#linear-gradient-2"/><linearGradient id="linear-gradient-11" x1="451.56" y1="-378" x2="548.74" y2="-574.67" xlink:href="#linear-gradient-2"/><linearGradient id="linear-gradient-12" x1="451.46" y1="-378.05" x2="548.63" y2="-574.72" xlink:href="#linear-gradient-2"/><linearGradient id="linear-gradient-13" x1="451.12" y1="-378.22" x2="548.29" y2="-574.88" xlink:href="#linear-gradient-2"/><linearGradient id="linear-gradient-14" x1="450.42" y1="-378.56" x2="547.6" y2="-575.23" xlink:href="#linear-gradient-2"/><linearGradient id="linear-gradient-15" x1="449.6" y1="-378.97" x2="546.77" y2="-575.64" xlink:href="#linear-gradient-2"/><linearGradient id="linear-gradient-16" x1="448.41" y1="-379.55" x2="545.59" y2="-576.22" xlink:href="#linear-gradient-2"/><linearGradient id="linear-gradient-17" x1="446.79" y1="-380.36" x2="543.96" y2="-577.03" xlink:href="#linear-gradient-2"/><linearGradient id="linear-gradient-18" x1="444.6" y1="-381.44" x2="541.77" y2="-578.11" xlink:href="#linear-gradient-2"/><linearGradient id="linear-gradient-19" x1="442.93" y1="-382.26" x2="540.11" y2="-578.93" xlink:href="#linear-gradient-2"/><linearGradient id="linear-gradient-20" x1="440.82" y1="-383.3" x2="537.99" y2="-579.97" xlink:href="#linear-gradient-2"/><linearGradient id="linear-gradient-21" x1="438.35" y1="-384.53" x2="535.52" y2="-581.19" xlink:href="#linear-gradient-2"/><linearGradient id="linear-gradient-22" x1="437.84" y1="-393.45" x2="528.85" y2="-577.64" xlink:href="#linear-gradient-2"/><linearGradient id="linear-gradient-23" x1="435.55" y1="-396.25" x2="525.54" y2="-578.39" xlink:href="#linear-gradient-2"/><linearGradient id="linear-gradient-24" x1="431.17" y1="-396.44" x2="522.65" y2="-581.59" xlink:href="#linear-gradient-2"/><linearGradient id="linear-gradient-25" x1="427.94" y1="-399.98" x2="518.23" y2="-582.72" xlink:href="#linear-gradient-2"/><linearGradient id="linear-gradient-26" x1="420.05" y1="-401.75" x2="511.86" y2="-587.57" xlink:href="#linear-gradient-2"/><linearGradient id="linear-gradient-27" x1="412.62" y1="-401.53" x2="507.01" y2="-592.57" xlink:href="#linear-gradient-2"/><linearGradient id="linear-gradient-28" x1="407.18" y1="-410.42" x2="497.58" y2="-593.38" xlink:href="#linear-gradient-2"/><linearGradient id="linear-gradient-29" x1="471.23" y1="-227.58" x2="501.33" y2="-266.61" xlink:href="#linear-gradient-3"/><linearGradient id="linear-gradient-30" x1="535.94" y1="-275" x2="749.11" y2="-301.74" gradientTransform="matrix(1.01, -0.03, -0.05, -1, -117.57, -33.89)" xlink:href="#linear-gradient-2"/><linearGradient id="linear-gradient-31" x1="527.54" y1="-259.45" x2="595.03" y2="-294.04" xlink:href="#linear-gradient-5"/><linearGradient id="linear-gradient-32" x1="466.61" y1="-267.78" x2="510.09" y2="-355.8" xlink:href="#linear-gradient-2"/><linearGradient id="linear-gradient-33" x1="468.54" y1="-266.82" x2="512.03" y2="-354.84" xlink:href="#linear-gradient-2"/><linearGradient id="linear-gradient-34" x1="469.6" y1="-266.3" x2="513.09" y2="-354.32" xlink:href="#linear-gradient-2"/><linearGradient id="linear-gradient-35" x1="470.29" y1="-265.96" x2="513.78" y2="-353.98" xlink:href="#linear-gradient-2"/><linearGradient id="linear-gradient-36" x1="470.54" y1="-265.84" x2="514.03" y2="-353.85" xlink:href="#linear-gradient-2"/><linearGradient id="linear-gradient-37" x1="470.83" y1="-265.69" x2="514.32" y2="-353.71" xlink:href="#linear-gradient-2"/><linearGradient id="linear-gradient-38" x1="470.84" y1="-265.69" x2="514.33" y2="-353.7" xlink:href="#linear-gradient-2"/><linearGradient id="linear-gradient-39" x1="470.65" y1="-265.78" x2="514.14" y2="-353.8" xlink:href="#linear-gradient-2"/><linearGradient id="linear-gradient-40" x1="470.3" y1="-265.96" x2="513.79" y2="-353.97" xlink:href="#linear-gradient-2"/><linearGradient id="linear-gradient-41" x1="469.99" y1="-266.11" x2="513.47" y2="-354.13" xlink:href="#linear-gradient-2"/><linearGradient id="linear-gradient-42" x1="469.39" y1="-266.4" x2="512.88" y2="-354.42" xlink:href="#linear-gradient-2"/><linearGradient id="linear-gradient-43" x1="468.68" y1="-266.76" x2="512.17" y2="-354.77" xlink:href="#linear-gradient-2"/><linearGradient id="linear-gradient-44" x1="467.68" y1="-267.25" x2="511.17" y2="-355.26" xlink:href="#linear-gradient-2"/><linearGradient id="linear-gradient-45" x1="466.93" y1="-267.62" x2="510.42" y2="-355.64" xlink:href="#linear-gradient-2"/><linearGradient id="linear-gradient-46" x1="466.05" y1="-268.05" x2="509.54" y2="-356.07" xlink:href="#linear-gradient-2"/><linearGradient id="linear-gradient-47" x1="464.9" y1="-268.62" x2="508.39" y2="-356.64" xlink:href="#linear-gradient-2"/><linearGradient id="linear-gradient-48" x1="464.68" y1="-272.61" x2="505.41" y2="-355.04" xlink:href="#linear-gradient-2"/><linearGradient id="linear-gradient-49" x1="463.62" y1="-273.88" x2="503.9" y2="-355.4" xlink:href="#linear-gradient-2"/><linearGradient id="linear-gradient-50" x1="461.71" y1="-273.94" x2="502.65" y2="-356.8" xlink:href="#linear-gradient-2"/><linearGradient id="linear-gradient-51" x1="460.3" y1="-275.51" x2="500.71" y2="-357.3" xlink:href="#linear-gradient-2"/><linearGradient id="linear-gradient-52" x1="456.76" y1="-276.31" x2="497.85" y2="-359.47" xlink:href="#linear-gradient-2"/><linearGradient id="linear-gradient-53" x1="453.42" y1="-276.21" x2="495.66" y2="-361.71" xlink:href="#linear-gradient-2"/><linearGradient id="linear-gradient-54" x1="450.96" y1="-280.21" x2="491.41" y2="-362.09" xlink:href="#linear-gradient-2"/><clipPath id="clip-path-15" transform="translate(-258.74 -204.4)"><polygon points="433.8 561.4 625.9 574.9 734.7 502.3 713 348.5 538.6 344.9 433.8 436.3 433.8 561.4" fill="none"/></clipPath><linearGradient id="linear-gradient-55" x1="551.33" y1="-496.91" x2="638.48" y2="-609.88" xlink:href="#linear-gradient-3"/><linearGradient id="linear-gradient-56" x1="567.69" y1="-568.09" x2="1184.8" y2="-645.49" gradientTransform="matrix(1.01, -0.03, -0.05, -1, -117.57, -33.89)" xlink:href="#linear-gradient-2"/><linearGradient id="linear-gradient-57" x1="543.39" y1="-523" x2="738.77" y2="-623.13" xlink:href="#linear-gradient-5"/><linearGradient id="linear-gradient-58" x1="570.71" y1="-486.91" x2="696.6" y2="-741.71" xlink:href="#linear-gradient-2"/><linearGradient id="linear-gradient-59" x1="576.34" y1="-484.12" x2="702.24" y2="-738.92" xlink:href="#linear-gradient-2"/><linearGradient id="linear-gradient-60" x1="579.36" y1="-482.64" x2="705.25" y2="-737.43" xlink:href="#linear-gradient-2"/><linearGradient id="linear-gradient-61" x1="581.34" y1="-481.66" x2="707.23" y2="-736.45" xlink:href="#linear-gradient-2"/><linearGradient id="linear-gradient-62" x1="582.11" y1="-481.28" x2="708" y2="-736.07" xlink:href="#linear-gradient-2"/><linearGradient id="linear-gradient-63" x1="583.01" y1="-480.84" x2="708.9" y2="-735.63" xlink:href="#linear-gradient-2"/><linearGradient id="linear-gradient-64" x1="582.84" y1="-480.92" x2="708.74" y2="-735.71" xlink:href="#linear-gradient-2"/><linearGradient id="linear-gradient-65" x1="582.37" y1="-481.15" x2="708.27" y2="-735.94" xlink:href="#linear-gradient-2"/><linearGradient id="linear-gradient-66" x1="581.46" y1="-481.6" x2="707.35" y2="-736.4" xlink:href="#linear-gradient-2"/><linearGradient id="linear-gradient-67" x1="580.38" y1="-482.13" x2="706.28" y2="-736.93" xlink:href="#linear-gradient-2"/><linearGradient id="linear-gradient-68" x1="578.9" y1="-482.87" x2="704.79" y2="-737.66" xlink:href="#linear-gradient-2"/><linearGradient id="linear-gradient-69" x1="576.74" y1="-483.93" x2="702.63" y2="-738.73" xlink:href="#linear-gradient-2"/><linearGradient id="linear-gradient-70" x1="573.93" y1="-485.32" x2="699.82" y2="-740.11" xlink:href="#linear-gradient-2"/><linearGradient id="linear-gradient-71" x1="571.77" y1="-486.39" x2="697.67" y2="-741.18" xlink:href="#linear-gradient-2"/><linearGradient id="linear-gradient-72" x1="569" y1="-487.76" x2="694.89" y2="-742.55" xlink:href="#linear-gradient-2"/><linearGradient id="linear-gradient-73" x1="565.84" y1="-489.32" x2="691.73" y2="-744.11" xlink:href="#linear-gradient-2"/><linearGradient id="linear-gradient-74" x1="565.2" y1="-500.86" x2="683.1" y2="-739.49" xlink:href="#linear-gradient-2"/><linearGradient id="linear-gradient-75" x1="562.18" y1="-504.53" x2="678.76" y2="-740.49" xlink:href="#linear-gradient-2"/><linearGradient id="linear-gradient-76" x1="556.58" y1="-504.74" x2="675.09" y2="-744.61" xlink:href="#linear-gradient-2"/><linearGradient id="linear-gradient-77" x1="552.36" y1="-509.33" x2="669.34" y2="-746.09" xlink:href="#linear-gradient-2"/><linearGradient id="linear-gradient-78" x1="542.15" y1="-511.62" x2="661.1" y2="-752.36" xlink:href="#linear-gradient-2"/><linearGradient id="linear-gradient-79" x1="532.49" y1="-511.35" x2="654.77" y2="-758.86" xlink:href="#linear-gradient-2"/><linearGradient id="linear-gradient-80" x1="525.43" y1="-522.89" x2="642.54" y2="-759.91" xlink:href="#linear-gradient-2"/></defs><title>home-header</title><g clip-path="url(#clip-path)"><circle cx="338.96" cy="251.1" r="227.4" fill="#a4afda"/></g><polygon points="0.16 382.3 411.06 413.5 612.86 356.6 176.26 330.9 0.16 382.3" fill="#f7f5f5"/><path d="M259.4,588.5a4,4,0,0,1,3.6-6.2l347.2,13.1L871.6,561s1.8,14.7-37.6,25.7-157.8,42.2-157.8,42.2L282.9,602.3a29.3,29.3,0,0,1-24-15.6h0" transform="translate(-258.74 -204.4)" fill="#e0e0e0"/><g clip-path="url(#clip-path-2)"><circle cx="376.66" cy="233.6" r="227.4" fill="#a4afda"/></g><path d="M435,535.3,871.6,561,669.8,617.9,258.9,586.7h0a17.75,17.75,0,0,1,12.9-12.5Z" transform="translate(-258.74 -204.4)" fill="#f7f5f5"/><polygon points="186.06 339.5 571.36 361.6 458.36 391 88.76 364.9 186.06 339.5" fill="#e0e0e0"/><path d="M871.6,561l55.9-282.9a22.08,22.08,0,0,0-1.8-14.3c-2.4-4.6-6.8-9.2-14.6-9.2H508.4s-13.8-3.7-19.3,14.7-54.1,266-54.1,266Z" transform="translate(-258.74 -204.4)" fill="#f0f0f0"/><path d="M504.2,266.3c-17.7,89.3-49.6,258.9-49.6,258.9l401.8,23.6,55-276.8Z" transform="translate(-258.74 -204.4)" fill="url(#linear-gradient)"/><path d="M504.2,266.3c-17.7,89.3-49.6,258.9-49.6,258.9l401.8,23.6,55-276.8Z" transform="translate(-258.74 -204.4)" fill="none"/><path d="M572.8,359.4l-18.3,92.3a10.3,10.3,0,0,1-10.7,8.2l-48.7-3.1a7.8,7.8,0,0,1-7.3-8.9v-.1c4.2-22,12.2-64.2,18.1-94.6A13,13,0,0,1,519,342.6l40.9,1.1A13.15,13.15,0,0,1,572.8,359.4Z" transform="translate(-258.74 -204.4)" fill="#fafafa"/><ellipse cx="856.79" cy="285.08" rx="5.6" ry="4.1" transform="translate(-77.23 680.13) rotate(-60)" fill="#a0a0a1"/><ellipse cx="871.6" cy="285.08" rx="5.6" ry="4.1" transform="translate(-69.83 692.96) rotate(-60)" fill="#a0a0a1"/><ellipse cx="886.32" cy="285.03" rx="5.6" ry="4.1" transform="translate(-62.43 705.68) rotate(-60)" fill="#a0a0a1"/><polygon points="342.86 118.4 582.76 120.5 586.96 104.2 346.16 101.3 342.86 118.4" fill="#fafafa"/><path d="M534.2,314.9l52.5.4a3.13,3.13,0,0,0,3.1-2.4h0a3.22,3.22,0,0,0-3.1-4l-52.4-.6a3.31,3.31,0,0,0-3.2,2.6l-.1.3A3.23,3.23,0,0,0,534.2,314.9Z" transform="translate(-258.74 -204.4)" fill="#fafafa"/><g clip-path="url(#clip-path-3)"><path d="M597.7,353.2c-5.9,30.4-13.9,72.6-18.1,94.6a13.16,13.16,0,0,0,12.2,15.6l160.1,9.4a13.13,13.13,0,0,0,13.7-10.6l20.2-101.7a13.12,13.12,0,0,0-12.7-15.7l-162.2-2.3A13.22,13.22,0,0,0,597.7,353.2Z" transform="translate(-258.74 -204.4)" fill="#fafafa"/></g><g clip-path="url(#clip-path-3)"><path d="M570.4,489.4c-5.9,30.4-13.9,72.6-18.1,94.6a13.16,13.16,0,0,0,12.2,15.6L724.6,609a13.13,13.13,0,0,0,13.7-10.6l18.1-94.3a13.12,13.12,0,0,0-12.7-15.7l-160.1-9.6A13,13,0,0,0,570.4,489.4Z" transform="translate(-258.74 -204.4)" fill="#fafafa"/></g><g clip-path="url(#clip-path-3)"><path d="M871.4,365.6l-7.1,33.3a10.3,10.3,0,0,1-10.7,8.2L804.9,404a7.8,7.8,0,0,1-7.3-8.9V395c4.2-22,.9-5.3,6.9-35.7a13,13,0,0,1,13.1-10.6l40.9,1.1A13.32,13.32,0,0,1,871.4,365.6Z" transform="translate(-258.74 -204.4)" fill="#fafafa"/></g><g clip-path="url(#clip-path-3)"><path d="M858.6,434.8l-7.1,33.3a10.3,10.3,0,0,1-10.7,8.2l-48.7-3.1a7.8,7.8,0,0,1-7.3-8.9v-.1c4.2-22,.9-5.3,6.9-35.7a13,13,0,0,1,13.1-10.6l40.9,1.1A13.27,13.27,0,0,1,858.6,434.8Z" transform="translate(-258.74 -204.4)" fill="#fafafa"/></g><g clip-path="url(#clip-path-3)"><path d="M843.3,507.2l-7.1,33.3a10.3,10.3,0,0,1-10.7,8.2l-48.7-3.1a7.8,7.8,0,0,1-7.3-8.9v-.1c4.2-22,.9-5.3,6.9-35.7a13,13,0,0,1,13.1-10.6l40.9,1.1A13.27,13.27,0,0,1,843.3,507.2Z" transform="translate(-258.74 -204.4)" fill="#fafafa"/></g><g clip-path="url(#clip-path-3)"><g clip-path="url(#clip-path-9)"><path d="M815.6,425.3c-2.5,8.9-10.5,15.6-17.8,14.9s-11.1-8.4-8.5-17.3,10.5-15.6,17.8-14.9S818.1,416.4,815.6,425.3Z" transform="translate(-258.74 -204.4)" fill="url(#linear-gradient-2)"/></g></g><g clip-path="url(#clip-path-3)"><g clip-path="url(#clip-path-11)"><path d="M828.3,355.7c-2.5,8.9-10.5,15.6-17.8,14.9s-11.1-8.4-8.5-17.3,10.5-15.6,17.8-14.9S830.8,346.8,828.3,355.7Z" transform="translate(-258.74 -204.4)" fill="#a4afda"/></g></g><g clip-path="url(#clip-path-3)"><g clip-path="url(#clip-path-13)"><path d="M800.1,497.8c-2.5,8.9-10.5,15.6-17.8,14.9s-11.1-8.4-8.5-17.3,10.5-15.6,17.8-14.9S802.6,488.9,800.1,497.8Z" transform="translate(-258.74 -204.4)" fill="#a4afda"/></g></g><g clip-path="url(#clip-path-3)"><path d="M640.8,399.3c1.7-9.1,3.6-18.7,5.4-28.1a15.25,15.25,0,0,1,15.2-12.4l82.9,1.2a15.32,15.32,0,0,1,14.8,18.2l-6.3,31.7a15.37,15.37,0,0,1-15.9,12.3l-82-4.8A15.24,15.24,0,0,1,640.8,399.3Z" transform="translate(-258.74 -204.4)" fill="#e0e0e0"/></g><path d="M640.9,435.8l52.4,3.2a2.87,2.87,0,0,0,3.1-2.2h0a3.47,3.47,0,0,0-3.1-4.2L641,429.1a3,3,0,0,0-3.2,2.4l-.1.3A3.49,3.49,0,0,0,640.9,435.8Z" transform="translate(-258.74 -204.4)" fill="#e0e0e0"/><path d="M639.4,448.6l23.8,1.5a2.87,2.87,0,0,0,3.1-2.2h0a3.47,3.47,0,0,0-3.1-4.2L639.5,442a3,3,0,0,0-3.2,2.4l-.1.3A3.5,3.5,0,0,0,639.4,448.6Z" transform="translate(-258.74 -204.4)" fill="#e0e0e0"/><path d="M513.5,357.9l31.7.7a2.91,2.91,0,0,0,2.8-2.1h0a2.86,2.86,0,0,0-2.7-3.6l-31.7-1a2.9,2.9,0,0,0-2.9,2.3v.2A2.89,2.89,0,0,0,513.5,357.9Z" transform="translate(-258.74 -204.4)" fill="#e0e0e0"/><path d="M510.6,373.6l42.7,1a2.8,2.8,0,0,0,2.8-2.1h0a3,3,0,0,0-2.7-3.7l-42.6-1.3a2.9,2.9,0,0,0-2.9,2.3v.2A2.9,2.9,0,0,0,510.6,373.6Z" transform="translate(-258.74 -204.4)" fill="#e0e0e0"/><path d="M507.7,389.2l42.7,1.3a2.8,2.8,0,0,0,2.8-2.1h0a3,3,0,0,0-2.7-3.7l-42.6-1.6a2.9,2.9,0,0,0-2.9,2.3v.2A2.82,2.82,0,0,0,507.7,389.2Z" transform="translate(-258.74 -204.4)" fill="#e0e0e0"/><path d="M504.8,404.9l42.8,1.6a2.8,2.8,0,0,0,2.8-2.1h0a3,3,0,0,0-2.7-3.7l-42.8-1.9a2.8,2.8,0,0,0-2.9,2.3v.2A3,3,0,0,0,504.8,404.9Z" transform="translate(-258.74 -204.4)" fill="#e0e0e0"/><path d="M501.9,420.5l47.1,1.9a2.7,2.7,0,0,0,2.8-2.1h0a3,3,0,0,0-2.7-3.7l-47-2.2a2.81,2.81,0,0,0-2.9,2.2v.2A2.87,2.87,0,0,0,501.9,420.5Z" transform="translate(-258.74 -204.4)" fill="#e0e0e0"/><path d="M499,436.2l36,1.8a2.7,2.7,0,0,0,2.8-2.1h0a3,3,0,0,0-2.7-3.7l-36-2a2.81,2.81,0,0,0-2.9,2.2v.2A3,3,0,0,0,499,436.2Z" transform="translate(-258.74 -204.4)" fill="#e0e0e0"/><path d="M587.4,497.2l52.2,2.3a3,3,0,0,0,3.1-2.3h0a3.33,3.33,0,0,0-3-4.1l-52.1-2.6a3.12,3.12,0,0,0-3.2,2.5l-.1.3A3.32,3.32,0,0,0,587.4,497.2Z" transform="translate(-258.74 -204.4)" fill="#e0e0e0"/><path d="M583,513.2l134.7,7.9a3,3,0,0,0,3.1-2.3h0a3.33,3.33,0,0,0-3-4.1l-134.6-8.2A3.12,3.12,0,0,0,580,509l-.1.3A3.44,3.44,0,0,0,583,513.2Z" transform="translate(-258.74 -204.4)" fill="#e0e0e0"/><path d="M497.9,397.1c0,28.2-19.3,49.9-44,50.1-1.2,0-9.6.4-10.8.3-26.3-1.9-40.5-27.8-40.6-57.4,0-27.7,9.6-48.9,33.6-49.9,1.6-.1,12.4-.3,14-.2C476.5,342,497.9,367.5,497.9,397.1Z" transform="translate(-258.74 -204.4)" fill="url(#linear-gradient-3)"/><path d="M487.7,397.3c0,29.6-21.3,51.9-47.6,50s-47.7-27.4-47.8-57,21.3-51.9,47.6-50S487.7,367.8,487.7,397.3Z" transform="translate(-258.74 -204.4)" fill="url(#linear-gradient-4)"/><path d="M482.6,397c0,26.4-19,46.4-42.5,44.7s-42.6-24.5-42.7-50.9,19-46.4,42.5-44.7S482.6,370.6,482.6,397Z" transform="translate(-258.74 -204.4)" fill="url(#linear-gradient-5)"/><path d="M455.9,371.3V380l-22.6-1.7c-2-.1-3.5.3-4.4,1.3a6,6,0,0,0-1.4,4.1,8.33,8.33,0,0,0,.3,2.2,5.38,5.38,0,0,0,1,2,6.18,6.18,0,0,0,2,1.5,8.94,8.94,0,0,0,3.2.7l10.3.8a18.7,18.7,0,0,1,7.4,1.8,12.8,12.8,0,0,1,4.5,3.7,13,13,0,0,1,2.3,4.9,24.62,24.62,0,0,1,.6,5.3,20.12,20.12,0,0,1-.8,5.7,10.14,10.14,0,0,1-2.5,4.4,10.54,10.54,0,0,1-4.3,2.7,16.06,16.06,0,0,1-6.4.6l-24.6-1.8v-8.7l24.8,1.8a5.17,5.17,0,0,0,4.6-1.4,6.09,6.09,0,0,0,1.5-4.3,8.52,8.52,0,0,0-.3-2.3,5.29,5.29,0,0,0-1.1-2.1,5.67,5.67,0,0,0-2.1-1.5,10,10,0,0,0-3.4-.8l-10.3-.7a18.18,18.18,0,0,1-7.3-1.8,13.32,13.32,0,0,1-4.4-3.6,11.72,11.72,0,0,1-2.2-4.8,23.06,23.06,0,0,1-.6-5.2,19.52,19.52,0,0,1,.7-5.6,10.67,10.67,0,0,1,2.4-4.3,9.91,9.91,0,0,1,4.3-2.7,15.36,15.36,0,0,1,6.3-.6Z" transform="translate(-258.74 -204.4)" fill="#fafafa"/><polygon points="184.96 170.4 176.46 169.8 176.46 158.8 184.96 159.4 184.96 170.4" fill="#fafafa"/><polygon points="185.06 221.5 176.56 220.8 176.56 211.4 185.06 212 185.06 221.5" fill="#fafafa"/><path d="M464.6,347.2h-2a1,1,0,0,1,0-2h2a1,1,0,0,1,0,2Z" transform="translate(-258.74 -204.4)" fill="url(#linear-gradient-6)"/><path d="M472.5,351.3h-3a1,1,0,0,1,0-2h3a1,1,0,0,1,1,1A.94.94,0,0,1,472.5,351.3Z" transform="translate(-258.74 -204.4)" fill="url(#linear-gradient-7)"/><path d="M478.5,355.5h-5a1,1,0,0,1,0-2h5a1,1,0,0,1,1,1A1.08,1.08,0,0,1,478.5,355.5Z" transform="translate(-258.74 -204.4)" fill="url(#linear-gradient-8)"/><path d="M482.5,359.6h-5a1,1,0,0,1,0-2h5a1,1,0,0,1,1,1A1.07,1.07,0,0,1,482.5,359.6Z" transform="translate(-258.74 -204.4)" fill="url(#linear-gradient-9)"/><path d="M485.9,365.1h-5a1,1,0,0,1,0-2h5a1,1,0,0,1,1,1A.94.94,0,0,1,485.9,365.1Z" transform="translate(-258.74 -204.4)" fill="url(#linear-gradient-10)"/><path d="M488.8,369.3h-5a1,1,0,0,1,0-2h5a1,1,0,0,1,0,2Z" transform="translate(-258.74 -204.4)" fill="url(#linear-gradient-11)"/><path d="M490.7,373.4h-5a1,1,0,1,1,0-2h5a1,1,0,0,1,0,2Z" transform="translate(-258.74 -204.4)" fill="url(#linear-gradient-12)"/><path d="M492.3,377.5h-5a1,1,0,0,1-1-1,.94.94,0,0,1,1-1h5a1,1,0,0,1,1,1A.94.94,0,0,1,492.3,377.5Z" transform="translate(-258.74 -204.4)" fill="url(#linear-gradient-13)"/><path d="M494.2,383.1h-5a1,1,0,1,1,0-2h5a1,1,0,0,1,1,1A1.07,1.07,0,0,1,494.2,383.1Z" transform="translate(-258.74 -204.4)" fill="url(#linear-gradient-14)"/><path d="M495.2,387.2h-5a1,1,0,0,1-1-1,.94.94,0,0,1,1-1h5a1,1,0,0,1,0,2Z" transform="translate(-258.74 -204.4)" fill="url(#linear-gradient-15)"/><path d="M495.8,391.4h-5a1,1,0,0,1,0-2h5a1,1,0,0,1,1,1A1.08,1.08,0,0,1,495.8,391.4Z" transform="translate(-258.74 -204.4)" fill="url(#linear-gradient-16)"/><path d="M495.8,395.5h-5a1,1,0,1,1,0-2h5a1,1,0,0,1,0,2Z" transform="translate(-258.74 -204.4)" fill="url(#linear-gradient-17)"/><path d="M495.8,401h-5a1,1,0,1,1,0-2h5a1,1,0,0,1,0,2Z" transform="translate(-258.74 -204.4)" fill="url(#linear-gradient-18)"/><path d="M495.8,405.2h-5a1,1,0,0,1,0-2h5a1,1,0,0,1,1,1A1.08,1.08,0,0,1,495.8,405.2Z" transform="translate(-258.74 -204.4)" fill="url(#linear-gradient-19)"/><path d="M495.2,409.3h-5a1,1,0,0,1,0-2h5a1,1,0,0,1,0,2Z" transform="translate(-258.74 -204.4)" fill="url(#linear-gradient-20)"/><path d="M494.2,413.5h-5a1,1,0,0,1-1-1,.94.94,0,0,1,1-1h5a1,1,0,1,1,0,2Z" transform="translate(-258.74 -204.4)" fill="url(#linear-gradient-21)"/><path d="M491.7,419h-4.4a1,1,0,1,1,0-2h4.4a1,1,0,0,1,1,1A.94.94,0,0,1,491.7,419Z" transform="translate(-258.74 -204.4)" fill="url(#linear-gradient-22)"/><path d="M490,423.1h-4.3a1,1,0,0,1-1-1,.94.94,0,0,1,1-1H490a1,1,0,0,1,0,2Z" transform="translate(-258.74 -204.4)" fill="url(#linear-gradient-23)"/><path d="M487.7,427.3h-4.5a1,1,0,0,1,0-2h4.5a1,1,0,0,1,1,1A1.08,1.08,0,0,1,487.7,427.3Z" transform="translate(-258.74 -204.4)" fill="url(#linear-gradient-24)"/><path d="M484.7,431.4h-4.4a1,1,0,0,1,0-2h4.4a1,1,0,0,1,0,2Z" transform="translate(-258.74 -204.4)" fill="url(#linear-gradient-25)"/><path d="M478.4,436.9h-3.9a1,1,0,0,1,0-2h3.9a1,1,0,0,1,1,1A.94.94,0,0,1,478.4,436.9Z" transform="translate(-258.74 -204.4)" fill="url(#linear-gradient-26)"/><path d="M472.9,441.1h-3.4a1,1,0,0,1,0-2h3.4a1,1,0,0,1,1,1A1.17,1.17,0,0,1,472.9,441.1Z" transform="translate(-258.74 -204.4)" fill="url(#linear-gradient-27)"/><path d="M464.4,445.2h-2a1,1,0,0,1,0-2h2a1,1,0,0,1,0,2Z" transform="translate(-258.74 -204.4)" fill="url(#linear-gradient-28)"/><path d="M491.6,230c0,12.6-8.7,22.3-19.7,22.4-.5,0-4.3.2-4.8.1-11.8-.9-18.1-12.5-18.2-25.7,0-12.4,4.3-21.9,15-22.3.7,0,5.5-.1,6.3-.1C482,205.4,491.6,216.8,491.6,230Z" transform="translate(-258.74 -204.4)" fill="url(#linear-gradient-29)"/><path d="M487,230.1c0,13.2-9.5,23.2-21.3,22.4s-21.4-12.3-21.4-25.5,9.5-23.2,21.3-22.4S487,216.9,487,230.1Z" transform="translate(-258.74 -204.4)" fill="url(#linear-gradient-30)"/><path d="M484.7,230c0,11.8-8.5,20.8-19,20s-19.1-11-19.1-22.8,8.5-20.8,19-20S484.7,218.2,484.7,230Z" transform="translate(-258.74 -204.4)" fill="url(#linear-gradient-31)"/><path d="M472.8,218.5v3.9l-10.1-.7a2.23,2.23,0,0,0-2,.6,2.79,2.79,0,0,0-.6,1.8,3.4,3.4,0,0,0,.1,1,2,2,0,0,0,.5.9,2.18,2.18,0,0,0,.9.7,2.9,2.9,0,0,0,1.4.3l4.6.3a10,10,0,0,1,3.3.8,5.45,5.45,0,0,1,2,1.6,5.54,5.54,0,0,1,1,2.2,9.86,9.86,0,0,1,.3,2.4,10.9,10.9,0,0,1-.3,2.6,4.9,4.9,0,0,1-1.1,2,6.15,6.15,0,0,1-1.9,1.2,6.48,6.48,0,0,1-2.9.3l-11-.8v-3.9l11.1.8a2.43,2.43,0,0,0,2.1-.6,2.94,2.94,0,0,0,.7-1.9c0-.3-.1-.7-.1-1a2.62,2.62,0,0,0-.5-.9,2.55,2.55,0,0,0-1-.7,3.34,3.34,0,0,0-1.5-.3l-4.6-.3a8.8,8.8,0,0,1-3.2-.8,6.42,6.42,0,0,1-2-1.6,5.8,5.8,0,0,1-1-2.1,9.69,9.69,0,0,1-.3-2.3,9.52,9.52,0,0,1,.3-2.5,4,4,0,0,1,1.1-1.9,5.16,5.16,0,0,1,1.9-1.2,6.2,6.2,0,0,1,2.8-.3Z" transform="translate(-258.74 -204.4)" fill="#fafafa"/><polygon points="208.56 15.7 204.76 15.4 204.76 10.5 208.56 10.8 208.56 15.7" fill="#fafafa"/><polygon points="208.66 38.5 204.86 38.2 204.86 34 208.66 34.3 208.66 38.5" fill="#fafafa"/><path d="M476.7,207.7h-.9a.4.4,0,0,1,0-.8h.9a.4.4,0,0,1,0,.8Z" transform="translate(-258.74 -204.4)" fill="url(#linear-gradient-32)"/><path d="M480.2,209.5h-1.3a.4.4,0,0,1,0-.8h1.3a.43.43,0,0,1,.4.4C480.7,209.4,480.5,209.5,480.2,209.5Z" transform="translate(-258.74 -204.4)" fill="url(#linear-gradient-33)"/><path d="M482.9,211.4h-2.2a.4.4,0,0,1,0-.8h2.2a.4.4,0,0,1,0,.8Z" transform="translate(-258.74 -204.4)" fill="url(#linear-gradient-34)"/><path d="M484.7,213.3h-2.2a.4.4,0,0,1,0-.8h2.2a.4.4,0,0,1,0,.8Z" transform="translate(-258.74 -204.4)" fill="url(#linear-gradient-35)"/><path d="M486.2,215.7H484a.4.4,0,1,1,0-.8h2.2a.43.43,0,0,1,.4.4C486.7,215.5,486.5,215.7,486.2,215.7Z" transform="translate(-258.74 -204.4)" fill="url(#linear-gradient-36)"/><path d="M487.5,217.6h-2.2a.4.4,0,1,1,0-.8h2.2a.43.43,0,0,1,.4.4C488,217.4,487.8,217.6,487.5,217.6Z" transform="translate(-258.74 -204.4)" fill="url(#linear-gradient-37)"/><path d="M488.4,219.4h-2.2a.4.4,0,0,1,0-.8h2.2a.4.4,0,0,1,0,.8Z" transform="translate(-258.74 -204.4)" fill="url(#linear-gradient-38)"/><path d="M489.1,221.3h-2.2a.4.4,0,0,1,0-.8h2.2a.4.4,0,1,1,0,.8Z" transform="translate(-258.74 -204.4)" fill="url(#linear-gradient-39)"/><path d="M489.9,223.8h-2.2a.4.4,0,0,1,0-.8h2.2a.4.4,0,0,1,0,.8Z" transform="translate(-258.74 -204.4)" fill="url(#linear-gradient-40)"/><path d="M490.4,225.6h-2.2a.4.4,0,0,1,0-.8h2.2a.4.4,0,1,1,0,.8Z" transform="translate(-258.74 -204.4)" fill="url(#linear-gradient-41)"/><path d="M490.6,227.5h-2.2a.4.4,0,0,1,0-.8h2.2a.43.43,0,0,1,.4.4C491.1,227.3,490.9,227.5,490.6,227.5Z" transform="translate(-258.74 -204.4)" fill="url(#linear-gradient-42)"/><path d="M490.6,229.3h-2.2a.4.4,0,0,1,0-.8h2.2a.43.43,0,0,1,.4.4C491.1,229.1,490.9,229.3,490.6,229.3Z" transform="translate(-258.74 -204.4)" fill="url(#linear-gradient-43)"/><path d="M490.6,231.8h-2.2a.4.4,0,0,1,0-.8h2.2a.43.43,0,0,1,.4.4C491.1,231.6,490.9,231.8,490.6,231.8Z" transform="translate(-258.74 -204.4)" fill="url(#linear-gradient-44)"/><path d="M490.6,233.7h-2.2a.4.4,0,1,1,0-.8h2.2a.43.43,0,0,1,.4.4C491.1,233.5,490.9,233.7,490.6,233.7Z" transform="translate(-258.74 -204.4)" fill="url(#linear-gradient-45)"/><path d="M490.4,235.5h-2.2a.4.4,0,0,1,0-.8h2.2a.4.4,0,0,1,0,.8Z" transform="translate(-258.74 -204.4)" fill="url(#linear-gradient-46)"/><path d="M489.9,237.4h-2.2a.4.4,0,0,1,0-.8h2.2a.4.4,0,0,1,0,.8Z" transform="translate(-258.74 -204.4)" fill="url(#linear-gradient-47)"/><path d="M488.8,239.8h-2a.4.4,0,1,1,0-.8h2a.43.43,0,0,1,.4.4C489.3,239.6,489.1,239.8,488.8,239.8Z" transform="translate(-258.74 -204.4)" fill="url(#linear-gradient-48)"/><path d="M488,241.7h-1.9a.4.4,0,0,1,0-.8H488a.43.43,0,0,1,.4.4A.37.37,0,0,1,488,241.7Z" transform="translate(-258.74 -204.4)" fill="url(#linear-gradient-49)"/><path d="M487,243.5h-2a.4.4,0,0,1,0-.8h2a.43.43,0,0,1,.4.4C487.5,243.3,487.3,243.5,487,243.5Z" transform="translate(-258.74 -204.4)" fill="url(#linear-gradient-50)"/><path d="M485.7,245.4h-1.9a.4.4,0,1,1,0-.8h1.9a.4.4,0,0,1,0,.8Z" transform="translate(-258.74 -204.4)" fill="url(#linear-gradient-51)"/><path d="M482.9,247.9h-1.7a.4.4,0,0,1,0-.8h1.7a.4.4,0,0,1,0,.8Z" transform="translate(-258.74 -204.4)" fill="url(#linear-gradient-52)"/><path d="M480.4,249.7h-1.5a.4.4,0,1,1,0-.8h1.5a.4.4,0,0,1,0,.8Z" transform="translate(-258.74 -204.4)" fill="url(#linear-gradient-53)"/><path d="M476.6,251.6h-.9a.4.4,0,0,1,0-.8h.9a.4.4,0,0,1,0,.8Z" transform="translate(-258.74 -204.4)" fill="url(#linear-gradient-54)"/><ellipse cx="619.71" cy="371.5" rx="16.3" ry="11.8" transform="translate(-359.24 224.99) rotate(-35.54)" fill="#e0e0e0"/><ellipse cx="620.44" cy="369.63" rx="6.3" ry="4.6" transform="translate(-358.02 225.06) rotate(-35.54)" fill="#fafafa"/><path d="M615.5,385a18.56,18.56,0,0,0,8.7-2.3c1.2-4.1-1.2-7.3-5.5-7.3a11.68,11.68,0,0,0-10.3,7.3A11.18,11.18,0,0,0,615.5,385Z" transform="translate(-258.74 -204.4)" fill="#fafafa"/><ellipse cx="745.62" cy="415.72" rx="17.4" ry="13.1" transform="translate(-363.02 291.54) rotate(-34.53)" fill="#fafafa"/><path d="M746.8,411.7a16.9,16.9,0,0,0-6.3.9l-1.8,5.6s2.7-.5,3.3-2.1l.5-1.6a21.86,21.86,0,0,1,3.6-.3,11.42,11.42,0,0,1,3.3.5l-1.3,4.1a9,9,0,0,1-5.2,5.3l-4.6-2.8a5.85,5.85,0,0,0,3.8,5.4,12.71,12.71,0,0,0,8.6-7.8l1.9-5.8A15.94,15.94,0,0,0,746.8,411.7Z" transform="translate(-258.74 -204.4)" fill="#939ac3"/><path d="M749.2,404.5a6,6,0,0,0-5.7,4l-.8,2.4c0,.1-.1.2-.1.3l2.2-.3.7-2.3a3.26,3.26,0,0,1,3-2.1,1.65,1.65,0,0,1,1.6,2.3l-.7,2.3a10.55,10.55,0,0,1,1.9.5c0-.1.1-.2.1-.3l.8-2.4C752.9,406.5,751.6,404.6,749.2,404.5Z" transform="translate(-258.74 -204.4)" fill="#939ac3"/><path d="M746.2,417.4a.8.8,0,0,0-.8-1.1,1.74,1.74,0,0,0-1.5,1.1.81.81,0,0,0,.4,1.1l-.6,1.9.4.1.5-.1.6-1.9A3.46,3.46,0,0,0,746.2,417.4Z" transform="translate(-258.74 -204.4)" fill="#939ac3"/><g clip-path="url(#clip-path-15)"><path d="M643.1,529.2c.1,36.5-25.1,64.6-57,65-1.6,0-12.4.5-14,.4-34.1-2.5-52.5-36.1-52.6-74.4-.1-35.9,12.4-63.3,43.5-64.6,2.1-.1,16-.4,18.2-.2C615.3,457.8,643,490.9,643.1,529.2Z" transform="translate(-258.74 -204.4)" fill="url(#linear-gradient-55)"/><path d="M629.8,529.5c.1,38.3-27.6,67.3-61.7,64.8s-61.8-35.5-61.9-73.8,27.6-67.3,61.7-64.8S629.8,491.2,629.8,529.5Z" transform="translate(-258.74 -204.4)" fill="url(#linear-gradient-56)"/><path d="M623.2,529.1c.1,34.2-24.6,60.1-55.1,57.9s-55.2-31.7-55.3-65.9,24.6-60.1,55.1-57.9S623.2,494.9,623.2,529.1Z" transform="translate(-258.74 -204.4)" fill="url(#linear-gradient-57)"/><path d="M588.6,495.8h0a10.41,10.41,0,0,1-11.2,10.4l-18.1-1.3c-2.6-.2-4.5.4-5.7,1.7a7.57,7.57,0,0,0-1.8,5.3,9,9,0,0,0,.4,2.8,7.34,7.34,0,0,0,1.4,2.6,6.52,6.52,0,0,0,2.6,1.9,11.83,11.83,0,0,0,4.1.9l13.4,1a25,25,0,0,1,9.6,2.4,17.77,17.77,0,0,1,5.9,4.8,18.32,18.32,0,0,1,3,6.3,32.47,32.47,0,0,1,.8,6.9,24.54,24.54,0,0,1-1,7.4,14.55,14.55,0,0,1-3.2,5.7,13.38,13.38,0,0,1-5.6,3.5,19.74,19.74,0,0,1-8.3.8l-31.8-2.3h0a10.41,10.41,0,0,1,11.2-10.4l21,1.5q4.05.3,6-1.8a7.93,7.93,0,0,0,1.9-5.6,10.32,10.32,0,0,0-.4-3,6.93,6.93,0,0,0-4.2-4.7,13,13,0,0,0-4.4-1l-13.3-1a24,24,0,0,1-9.4-2.3,16.73,16.73,0,0,1-5.7-4.7,17.63,17.63,0,0,1-2.9-6.2,31.4,31.4,0,0,1-.8-6.7,23.87,23.87,0,0,1,1-7.3,13.33,13.33,0,0,1,3.1-5.6,12.85,12.85,0,0,1,5.5-3.4,20.68,20.68,0,0,1,8.1-.8Z" transform="translate(-258.74 -204.4)" fill="#fafafa"/><polygon points="314.06 296 303.16 295.2 303.06 280.9 314.06 281.7 314.06 296" fill="#fafafa"/><polygon points="314.16 362.1 303.26 361.3 303.16 349 314.16 349.8 314.16 362.1" fill="#fafafa"/><path d="M599.9,464.6h-2.6a1.22,1.22,0,0,1-1.2-1.2,1.31,1.31,0,0,1,1.2-1.3h2.6a1.24,1.24,0,0,1,1.2,1.3A1.15,1.15,0,0,1,599.9,464.6Z" transform="translate(-258.74 -204.4)" fill="url(#linear-gradient-58)"/><path d="M610.2,469.9h-3.9a1.2,1.2,0,1,1,0-2.4h3.9a1.2,1.2,0,0,1,0,2.4Z" transform="translate(-258.74 -204.4)" fill="url(#linear-gradient-59)"/><path d="M617.9,475.3h-6.5a1.22,1.22,0,0,1-1.2-1.2,1.31,1.31,0,0,1,1.2-1.3h6.5a1.24,1.24,0,0,1,1.2,1.3A1.22,1.22,0,0,1,617.9,475.3Z" transform="translate(-258.74 -204.4)" fill="url(#linear-gradient-60)"/><path d="M623,480.6h-6.5a1.22,1.22,0,0,1-1.2-1.2,1.29,1.29,0,0,1,1.2-1.2H623a1.2,1.2,0,1,1,0,2.4Z" transform="translate(-258.74 -204.4)" fill="url(#linear-gradient-61)"/><path d="M627.5,487.8H621a1.22,1.22,0,0,1-1.2-1.2,1.31,1.31,0,0,1,1.2-1.3h6.5a1.24,1.24,0,0,1,1.2,1.3A1.1,1.1,0,0,1,627.5,487.8Z" transform="translate(-258.74 -204.4)" fill="url(#linear-gradient-62)"/><path d="M631.3,493.2h-6.5a1.2,1.2,0,1,1,0-2.4h6.5a1.22,1.22,0,0,1,1.2,1.2A1.15,1.15,0,0,1,631.3,493.2Z" transform="translate(-258.74 -204.4)" fill="url(#linear-gradient-63)"/><path d="M633.7,498.5h-6.5a1.22,1.22,0,0,1-1.2-1.2,1.31,1.31,0,0,1,1.2-1.3h6.5a1.24,1.24,0,0,1,1.2,1.3A1.16,1.16,0,0,1,633.7,498.5Z" transform="translate(-258.74 -204.4)" fill="url(#linear-gradient-64)"/><path d="M635.8,503.9h-6.5a1.22,1.22,0,0,1-1.2-1.2,1.29,1.29,0,0,1,1.2-1.2h6.5a1.2,1.2,0,1,1,0,2.4Z" transform="translate(-258.74 -204.4)" fill="url(#linear-gradient-65)"/><path d="M638.2,511.1h-6.5a1.22,1.22,0,0,1-1.2-1.2,1.31,1.31,0,0,1,1.2-1.3h6.5a1.24,1.24,0,0,1,1.2,1.3A1.22,1.22,0,0,1,638.2,511.1Z" transform="translate(-258.74 -204.4)" fill="url(#linear-gradient-66)"/><path d="M639.5,516.4H633a1.22,1.22,0,0,1-1.2-1.2A1.29,1.29,0,0,1,633,514h6.5a1.2,1.2,0,0,1,0,2.4Z" transform="translate(-258.74 -204.4)" fill="url(#linear-gradient-67)"/><path d="M640.3,521.8h-6.5a1.22,1.22,0,0,1-1.2-1.2,1.31,1.31,0,0,1,1.2-1.3h6.5a1.24,1.24,0,0,1,1.2,1.3A1.22,1.22,0,0,1,640.3,521.8Z" transform="translate(-258.74 -204.4)" fill="url(#linear-gradient-68)"/><path d="M640.3,527.2h-6.5a1.2,1.2,0,1,1,0-2.4h6.5a1.2,1.2,0,0,1,0,2.4Z" transform="translate(-258.74 -204.4)" fill="url(#linear-gradient-69)"/><path d="M640.3,534.3h-6.5a1.22,1.22,0,0,1-1.2-1.2,1.31,1.31,0,0,1,1.2-1.3h6.5a1.24,1.24,0,0,1,1.2,1.3A1.16,1.16,0,0,1,640.3,534.3Z" transform="translate(-258.74 -204.4)" fill="url(#linear-gradient-70)"/><path d="M640.3,539.7h-6.5a1.2,1.2,0,1,1,0-2.4h6.5a1.2,1.2,0,0,1,0,2.4Z" transform="translate(-258.74 -204.4)" fill="url(#linear-gradient-71)"/><path d="M639.5,545.1H633a1.22,1.22,0,0,1-1.2-1.2,1.31,1.31,0,0,1,1.2-1.3h6.5a1.24,1.24,0,0,1,1.2,1.3A1.15,1.15,0,0,1,639.5,545.1Z" transform="translate(-258.74 -204.4)" fill="url(#linear-gradient-72)"/><path d="M638.2,550.4h-6.5a1.22,1.22,0,0,1-1.2-1.2,1.29,1.29,0,0,1,1.2-1.2h6.5a1.2,1.2,0,0,1,0,2.4Z" transform="translate(-258.74 -204.4)" fill="url(#linear-gradient-73)"/><path d="M635,557.6h-5.7a1.22,1.22,0,0,1-1.2-1.2,1.31,1.31,0,0,1,1.2-1.3H635a1.24,1.24,0,0,1,1.2,1.3A1.15,1.15,0,0,1,635,557.6Z" transform="translate(-258.74 -204.4)" fill="url(#linear-gradient-74)"/><path d="M632.8,563h-5.6a1.22,1.22,0,0,1-1.2-1.2,1.29,1.29,0,0,1,1.2-1.2h5.6a1.2,1.2,0,1,1,0,2.4Z" transform="translate(-258.74 -204.4)" fill="url(#linear-gradient-75)"/><path d="M629.8,568.3H624a1.22,1.22,0,0,1-1.2-1.2,1.31,1.31,0,0,1,1.2-1.3h5.8a1.24,1.24,0,0,1,1.2,1.3A1.1,1.1,0,0,1,629.8,568.3Z" transform="translate(-258.74 -204.4)" fill="url(#linear-gradient-76)"/><path d="M625.9,573.7h-5.6a1.2,1.2,0,1,1,0-2.4h5.6a1.22,1.22,0,0,1,1.2,1.2A1.15,1.15,0,0,1,625.9,573.7Z" transform="translate(-258.74 -204.4)" fill="url(#linear-gradient-77)"/><path d="M617.8,580.9h-5a1.22,1.22,0,0,1-1.2-1.2,1.31,1.31,0,0,1,1.2-1.3h5a1.24,1.24,0,0,1,1.2,1.3A1.15,1.15,0,0,1,617.8,580.9Z" transform="translate(-258.74 -204.4)" fill="url(#linear-gradient-78)"/><path d="M610.6,586.2h-4.4A1.22,1.22,0,0,1,605,585a1.29,1.29,0,0,1,1.2-1.2h4.4a1.2,1.2,0,0,1,0,2.4Z" transform="translate(-258.74 -204.4)" fill="url(#linear-gradient-79)"/><path d="M599.6,591.6H597a1.22,1.22,0,0,1-1.2-1.2,1.31,1.31,0,0,1,1.2-1.3h2.6a1.24,1.24,0,0,1,1.2,1.3A1.15,1.15,0,0,1,599.6,591.6Z" transform="translate(-258.74 -204.4)" fill="url(#linear-gradient-80)"/></g><path id="Icon_awesome-image" data-name="Icon awesome-image" d="M716.1,406.7,671,404.3c-2.8-.1-4.6-2.2-4.1-4.7h0l5.2-26.7a6,6,0,0,1,5.9-4.4l45.7.9c3,.1,5.1,2.2,4.6,4.8h0l-5.7,28a6.25,6.25,0,0,1-6.5,4.5ZM683.7,374c-3.3-.1-6.4,2.2-7,5.1s1.6,5.3,4.9,5.4,6.5-2.2,7-5.1h0c.6-2.9-1.6-5.3-4.9-5.4Zm-9.9,24.5,41.8,2,2.2-10.8-8.1-8.8a1.49,1.49,0,0,0-1.9-.1l-17.4,12.4-4.9-5.5a1.36,1.36,0,0,0-1.8-.1l-8.9,6.4Z" transform="translate(-258.74 -204.4)" fill="#fafafa"/></svg>