<svg id="Layer_1" data-name="Layer 1" xmlns="http://www.w3.org/2000/svg" viewBox="0 0 418.17 500"><title>Untitled-4</title><g id="Group_81" data-name="Group 81"><g id="Group_50" data-name="Group 50"><g id="Group_39" data-name="Group 39"><circle id="Ellipse_17" data-name="Ellipse 17" cx="103.06" cy="208.49" r="99.77" fill="#a4afda"/></g><g id="Group_43" data-name="Group 43"><g id="Group_40" data-name="Group 40"><path id="Path_148" data-name="Path 148" d="M145.57,266.76h-3.9a35.41,35.41,0,0,1-35.42-35.41V202.17a4.93,4.93,0,0,1,4.92-4.92h64.89a4.92,4.92,0,0,1,4.92,4.92v29.18A35.41,35.41,0,0,1,145.57,266.76Z" transform="translate(-40.92)" fill="#fafafa"/></g><g id="Group_42" data-name="Group 42"><g id="Group_41" data-name="Group 41"><path id="Path_149" data-name="Path 149" d="M170.26,218.82H117.69v-30.5a26.29,26.29,0,1,1,52.57,0Zm-43-9.56H160.7V188.31a16.73,16.73,0,0,0-33.45,0Z" transform="translate(-40.92)" fill="#fafafa"/></g></g></g><g id="Group_46" data-name="Group 46"><g id="Group_44" data-name="Group 44"><circle id="Ellipse_18" data-name="Ellipse 18" cx="102.7" cy="222.64" r="8.11" fill="#a4afda"/></g><g id="Group_45" data-name="Group 45"><path id="Rectangle_48" data-name="Rectangle 48" d="M139.56,226.89h8.11v12.27a4,4,0,0,1-4,4.05h0a4.05,4.05,0,0,1-4.06-4.05h0V226.89Z" transform="translate(-40.92)" fill="#a4afda"/></g></g><g id="Group_47" data-name="Group 47"><path id="Path_150" data-name="Path 150" d="M144.69,119.64l2.63,8.11h8.53a.76.76,0,0,1,.75.75.8.8,0,0,1-.31.61l-6.9,5,2.64,8.1a.76.76,0,0,1-.49.95.73.73,0,0,1-.67-.1l-6.9-5-6.89,5a.76.76,0,0,1-1.06-.17.75.75,0,0,1-.1-.68l2.63-8.1-6.89-5a.75.75,0,0,1,.44-1.36h8.53l2.63-8.11a.75.75,0,0,1,1-.48A.76.76,0,0,1,144.69,119.64Z" transform="translate(-40.92)" fill="#fafafa"/></g><g id="Group_48" data-name="Group 48"><path id="Path_151" data-name="Path 151" d="M103,134.38l2.63,8.11h8.53a.76.76,0,0,1,.75.75.77.77,0,0,1-.31.61l-6.9,5,2.64,8.11a.75.75,0,0,1-1.16.84l-6.9-5-6.89,5a.76.76,0,0,1-1.06-.17.73.73,0,0,1-.1-.67l2.63-8.11-6.89-5a.75.75,0,0,1-.17-1,.77.77,0,0,1,.61-.31H99l2.63-8.11a.76.76,0,0,1,1.43,0Z" transform="translate(-40.92)" fill="#fafafa"/></g><g id="Group_49" data-name="Group 49"><path id="Path_152" data-name="Path 152" d="M187.72,134.38l2.63,8.11h8.52a.75.75,0,0,1,.76.75.77.77,0,0,1-.31.61l-6.9,5,2.63,8.11a.75.75,0,0,1-.48.95.76.76,0,0,1-.67-.11l-6.9-5-6.89,5a.76.76,0,0,1-1.06-.17.73.73,0,0,1-.1-.67l2.63-8.11-6.9-5a.75.75,0,0,1-.16-1,.77.77,0,0,1,.61-.31h8.52l2.64-8.11a.75.75,0,0,1,1-.47A.77.77,0,0,1,187.72,134.38Z" transform="translate(-40.92)" fill="#fafafa"/></g></g><g id="Group_51" data-name="Group 51"><path id="Path_153" data-name="Path 153" d="M252.9,387.42c1.41,14.1,3.17,18,3.87,27.5S249,425.18,237,430.8s-25.38,13-34.9,8.8,12.69-14.5,19-30.17,4.93-22,4.93-22S244.44,377.55,252.9,387.42Z" transform="translate(-40.92)" fill="#939ac3"/></g><g id="Group_52" data-name="Group 52"><rect id="Rectangle_49" data-name="Rectangle 49" x="185.54" y="435.38" width="167.23" height="58.72" fill="#e8e6e6"/></g><g id="Group_53" data-name="Group 53"><path id="Path_154" data-name="Path 154" d="M178,406.63c2.12,12.69,2.64,16.39-5.81,29.61s-24.57,27.5-12,28.55,26.83-5.28,36.34-14.28,19-14.28,19-18.51-5.29-9.52-7.93-24.32l-3.93-11S199.67,408.74,178,406.63Z" transform="translate(-40.92)" fill="#a4afda"/></g><g id="Group_54" data-name="Group 54"><path id="Path_155" data-name="Path 155" d="M322.27,128.64c4.66,18.71,6.07,27.16,6.07,27.16s16.71,5.54,26.33-9.21L342.45,105Z" transform="translate(-40.92)" fill="#e7a38a"/></g><g id="Group_55" data-name="Group 55"><path id="Path_156" data-name="Path 156" d="M291,57.09c-9.88,8.46-10.58,16.22-12.7,31.71s0,21.86,0,21.86h5.87s-2.35,21.15,11.75,28.2,37.37-1.41,47.94-18.33S359.35,79.64,348.78,67,291,57.09,291,57.09Z" transform="translate(-40.92)" fill="#e7a38a"/></g><g id="Group_56" data-name="Group 56"><path id="Path_157" data-name="Path 157" d="M324.81,38.77s-46.29.17-42.53,30c0,0,13.63-5.38,28.43,13s30.33,42.3,38.07,54.29,21.86,0,32.45-8.47,9.87-16.22-5.64-41.59S350.2,45.11,324.81,38.77Z" transform="translate(-40.92)" fill="#17192d"/></g><g id="Group_57" data-name="Group 57"><path id="Path_158" data-name="Path 158" d="M326.23,47.23c2.82-14.81-.71-16.22-3.53-27.5s8.46-24.67,25.38-14.1-1.41,23.27-9.87,33.14l-8.46,9.87Z" transform="translate(-40.92)" fill="#17192d"/></g><g id="Group_58" data-name="Group 58"><path id="Path_159" data-name="Path 159" d="M342.18,103.11,335.2,90a8.06,8.06,0,0,1,9.36-6C352.42,85.39,358.83,100.46,342.18,103.11Z" transform="translate(-40.92)" fill="#e7a38a"/></g><g id="Group_59" data-name="Group 59"><path id="Path_160" data-name="Path 160" d="M316,246.93c-28.57-10-62.33-23-83-25.38s-36,15.87-31.72,47.59,5.81,114.22,19.56,126.91c0,0,19.92,3.18,37.46-4.76,0,0,7-9.51,8-33.84s.53-69.79.53-69.79,60.73,41.65,93.59,13.21S370,236.36,370,236.36Z" transform="translate(-40.92)" fill="#9f1ba2"/></g><g id="Group_60" data-name="Group 60"><path id="Path_161" data-name="Path 161" d="M388.33,248.52c8.05,23.8,11.22,67.16-21.56,86.72s-65.57,9-101-5.81-47.06-20.09-47.06-20.09-3.7-3.18-3.18,6.34,8.47,70.86-7.93,92a47.84,47.84,0,0,1-33.23,4.23s-12.25-15.33-13.83-46,0-116.33,39.13-113.69S308.6,278.13,308.6,278.13l15.86-37.55Z" transform="translate(-40.92)" fill="#d7159c"/></g><g id="Group_61" data-name="Group 61"><path id="Path_162" data-name="Path 162" d="M193.09,206.52l-17.21,12.92s-4.76,5.81,2.64,11.62,34.38,25.71,34.38,25.71L233,235.82,196.7,206.57A2.91,2.91,0,0,0,193.09,206.52Z" transform="translate(-40.92)" fill="#17192d"/></g><g id="Group_62" data-name="Group 62"><path id="Path_163" data-name="Path 163" d="M284.16,110.68h17s13.35,17.63,34,11.62l3.44,4.91s-9.61,12.44-32.86,18.36c-19.39,4.94-19.58-9.52-19.31-17.45,0,0,4.86-.88,4.86-10.41l-7.17,0S283,116.68,284.16,110.68Z" transform="translate(-40.92)" fill="#17192d"/></g><g id="Group_63" data-name="Group 63"><path id="Path_164" data-name="Path 164" d="M195,410.79a1.36,1.36,0,0,1-1.34-1.13,381.35,381.35,0,0,1-2.4-113.72c1.23-9.57,3.15-14.47,6.57-16.9,2.53-1.8,5.9-2.18,10.6-1.19,9.75,2.06,58.86,17.06,88.2,26l3.22,1c29.91,9.14,38.27,9.17,49.7.24a1.38,1.38,0,0,1,1.92.23,1.36,1.36,0,0,1-.23,1.92h0c-12.91,10.11-23.26,9.07-52.18.25l-3.22-1c-29.29-8.95-78.33-23.92-88-25.95-3.91-.82-6.59-.59-8.46.73-2.7,1.91-4.33,6.41-5.44,15a378.2,378.2,0,0,0,2.38,112.9,1.36,1.36,0,0,1-1.11,1.58h0A1,1,0,0,1,195,410.79Z" transform="translate(-40.92)" fill="#fafafa"/></g><g id="Group_64" data-name="Group 64"><path id="Path_165" data-name="Path 165" d="M459.08,464.91A35.1,35.1,0,0,1,424,500H218.2v-9.49h147a25.6,25.6,0,0,0,0-51.2h-147v-9.49H424A35.11,35.11,0,0,1,459.08,464.91Z" transform="translate(-40.92)" fill="#9f1ba2"/></g><g id="Group_65" data-name="Group 65"><rect id="Rectangle_50" data-name="Rectangle 50" x="252.88" y="347.58" width="99.89" height="40.19" fill="#e8e6e6"/></g><g id="Group_66" data-name="Group 66"><path id="Path_166" data-name="Path 166" d="M335.2,457.39h26.28v25.39l-13.14-8.47-13.14,8.47Z" transform="translate(-40.92)" fill="#a4afda"/></g><g id="Group_67" data-name="Group 67"><path id="Path_167" data-name="Path 167" d="M215.89,252.7a1.37,1.37,0,0,1-.83-.27l-37-28.21a1.36,1.36,0,1,1,1.65-2.17l37,28.2a1.36,1.36,0,0,1,.27,1.91,1.38,1.38,0,0,1-1.09.54Z" transform="translate(-40.92)" fill="#a4afda"/></g><g id="Group_68" data-name="Group 68"><path id="Path_168" data-name="Path 168" d="M307,235.83c-5.81,13.75,4.12,16.92-18.5,14.29-17.33-2-40.72-7.41-55.53-14.29s-18-12.16-22.21-9,6.35,15.34,6.35,15.34-13.22,2.11-19.57.53-6.87,9.51,0,14.8,21.69,6.88,40.19,10.58,46.33,20.09,73.4,19.56,35.53-20.62,39.24-37Z" transform="translate(-40.92)" fill="#e7a38a"/></g><g id="Group_69" data-name="Group 69"><path id="Path_169" data-name="Path 169" d="M328.34,155.81c-15.51,23.27-28.9,88.84-28.9,88.84l55.23,19.74s29.15-6.52,39-9.34,9-8.51,3.53-28.91c-8.89-33-20.23-71-35-76.67s-7.51-2.88-7.51-2.88A50.17,50.17,0,0,1,328.34,155.81Z" transform="translate(-40.92)" fill="#a4afda"/></g><g id="Group_70" data-name="Group 70"><path id="Path_170" data-name="Path 170" d="M151.73,6.83l13.55,13.56L151.73,34,138.17,20.39,151.73,6.83m0-6.83a6.8,6.8,0,0,0-4.83,2L133.34,15.56a6.83,6.83,0,0,0,0,9.66h0L146.9,38.78a6.82,6.82,0,0,0,4.83,2h0a6.88,6.88,0,0,0,4.84-2l13.56-13.56a6.84,6.84,0,0,0,0-9.66h0L156.57,2A6.82,6.82,0,0,0,151.73,0Z" transform="translate(-40.92)" fill="#a4afda"/></g><g id="Group_71" data-name="Group 71"><path id="Path_171" data-name="Path 171" d="M432.89,105.45a3.46,3.46,0,0,1-1.61-.4L410.52,94a3.41,3.41,0,0,1,0-6l23.82-12.26a3.42,3.42,0,0,1,4.6,1.48,3.38,3.38,0,0,1,.35,2l-3.06,23.33a3.41,3.41,0,0,1-3.39,3ZM419.48,91l10.65,5.68,1.57-12Z" transform="translate(-40.92)" fill="#a4afda"/></g><g id="Group_72" data-name="Group 72"><path id="Path_172" data-name="Path 172" d="M439.75,211.9a13.8,13.8,0,1,1,13.8-13.8,13.8,13.8,0,0,1-13.8,13.8Zm0-20.75a7,7,0,1,0,7,7h0A7,7,0,0,0,439.75,191.15Z" transform="translate(-40.92)" fill="#a4afda"/></g><g id="Group_75" data-name="Group 75"><g id="Group_73" data-name="Group 73"><path id="Path_173" data-name="Path 173" d="M123.5,430.88a3.43,3.43,0,0,1-3-1.72L108.91,409a3.41,3.41,0,1,1,5.85-3.52.41.41,0,0,1,.07.11l11.62,20.17a3.41,3.41,0,0,1-1.26,4.66,3.46,3.46,0,0,1-1.69.46Z" transform="translate(-40.92)" fill="#a4afda"/></g><g id="Group_74" data-name="Group 74"><path id="Path_174" data-name="Path 174" d="M107.61,426.6a3.41,3.41,0,0,1-1.71-6.37l20.16-11.62a3.42,3.42,0,1,1,3.41,5.92l-20.16,11.62A3.38,3.38,0,0,1,107.61,426.6Z" transform="translate(-40.92)" fill="#a4afda"/></g></g><g id="Group_76" data-name="Group 76"><path id="Path_175" data-name="Path 175" d="M74.19,89.32a21.81,21.81,0,0,1-9.37-2.77c-4-1.89-6.34-2.88-9.29-1.35a3.41,3.41,0,1,1-3.47-5.88,1.74,1.74,0,0,1,.33-.18c6.09-3.16,11.23-.72,15.36,1.25,4,1.89,6.35,2.88,9.29,1.36s3.51-4,4.25-8.37c.78-4.51,1.74-10.12,7.84-13.28a3.42,3.42,0,0,1,3.15,6.05c-3,1.52-3.51,4-4.25,8.37C87.25,79,86.29,84.64,80.19,87.8A12.85,12.85,0,0,1,74.19,89.32Z" transform="translate(-40.92)" fill="#a4afda"/></g><g id="Group_77" data-name="Group 77"><path id="Path_176" data-name="Path 176" d="M56,331.49a14.63,14.63,0,0,1-2.29-.18,15,15,0,0,1-6.67-27,3.42,3.42,0,0,1,4.17,5.41l-.12.09a8.22,8.22,0,0,0,9.75,13.23,3.42,3.42,0,0,1,4.06,5.5A15,15,0,0,1,56,331.49Z" transform="translate(-40.92)" fill="#a4afda"/></g><g id="Group_78" data-name="Group 78"><path id="Path_177" data-name="Path 177" d="M455.07,368.2a24.16,24.16,0,0,1-24.15,24.15H289.26v-6.54h79.82a17.62,17.62,0,0,0,0-35.24H289.27V344H430.93A24.16,24.16,0,0,1,455.07,368.2Z" transform="translate(-40.92)" fill="#9f1ba2"/></g><g id="Group_79" data-name="Group 79"><rect id="Rectangle_51" data-name="Rectangle 51" x="236.01" y="397.01" width="85.04" height="29.86" fill="#e8e6e6"/></g><g id="Group_80" data-name="Group 80"><path id="Path_178" data-name="Path 178" d="M410.12,398.09v27a5.74,5.74,0,0,1-5.73,5.74H269.93v-5.74h52.15a4,4,0,0,0,4-4h0V402.12a4,4,0,0,0-4-4H269.93v-5.73H404.4A5.73,5.73,0,0,1,410.12,398.09Z" transform="translate(-40.92)" fill="#a4afda"/></g></g></svg>