<svg id="Layer_1" data-name="Layer 1" xmlns="http://www.w3.org/2000/svg" viewBox="0 0 370.46 500"><title>Untitled-6</title><g id="Group_171" data-name="Group 171"><g id="Group_137" data-name="Group 137"><path id="Path_212" data-name="Path 212" d="M154.77,28.08s16-21,52.5-25.61,60.6,7.21,60.6,7.21a93.71,93.71,0,0,1,69.84,39c27.14,38.38,26.87,63.46,23.85,74.46S337.24,102.2,291.7,89.88s-108.55,6.34-141.2,32.79-37.72,40.09-46.23,26.07S90.76,54.62,154.77,28.08Z" transform="translate(-64.77 0)" fill="#a4afda"/></g><g id="Group_138" data-name="Group 138"><path id="Path_213" data-name="Path 213" d="M277.43,56.94l-.07,3.65C219.1,39.09,168,76,168,76l-2-4.22s-67.49,38.64-55.61,82.48c6.56,1,15.51-11.68,40.1-31.61,32.64-26.45,95.67-45.09,141.2-32.78,41.56,11.24,62.93,38.81,68.64,35.16l1.22-1.92C359.22,59.65,277.43,56.94,277.43,56.94Z" transform="translate(-64.77 0)" fill="#939ac3"/></g><g id="Group_139" data-name="Group 139"><path id="Path_214" data-name="Path 214" d="M278.41,242.65a1.81,1.81,0,0,1-.4,0,2,2,0,0,1-1.58-2.39h0L312.69,62.77a2,2,0,1,1,4,.82h0L280.39,241A2,2,0,0,1,278.41,242.65Z" transform="translate(-64.77 0)" fill="#17192d"/></g><g id="Group_140" data-name="Group 140"><path id="Path_215" data-name="Path 215" d="M215.71,232.9a2,2,0,0,1-1.88-1.27L153.18,79.86a2,2,0,1,1,3.76-1.5l60.65,151.77a2,2,0,0,1-1.14,2.63,2.11,2.11,0,0,1-.74.14Z" transform="translate(-64.77 0)" fill="#17192d"/></g><g id="Group_141" data-name="Group 141"><path id="Path_216" data-name="Path 216" d="M299.1,304.71c8.88,10.45,19.13,14.47,28.11,22.91s0,34.55,0,34.55l-62.14-1.94L248.43,311.5Z" transform="translate(-64.77 0)" fill="#d7159c"/></g><g id="Group_142" data-name="Group 142"><path id="Path_217" data-name="Path 217" d="M339.32,403.44c4.71,12.53,9.93,15.15,18.29,20.37s12.53,8.25-9.15,9.61c0,0-5.46.32-18.54-11.18S326.78,404,326.78,404Z" transform="translate(-64.77 0)" fill="#939ac3"/></g><g id="Group_143" data-name="Group 143"><path id="Path_218" data-name="Path 218" d="M415.09,6.75l13.4,13.39-13.4,13.4L401.7,20.14,415.09,6.75m0-6.75a6.76,6.76,0,0,0-4.78,2l-13.4,13.39a6.75,6.75,0,0,0,0,9.54l13.4,13.4a6.71,6.71,0,0,0,4.78,2h0a6.75,6.75,0,0,0,4.77-2l13.39-13.4a6.74,6.74,0,0,0,0-9.54L419.86,2a6.72,6.72,0,0,0-4.77-2Z" transform="translate(-64.77 0)" fill="#a4afda"/></g><g id="Group_144" data-name="Group 144"><path id="Path_219" data-name="Path 219" d="M120.63,332.81a3.36,3.36,0,0,1-1.58-.39L98.54,321.48a3.37,3.37,0,0,1,0-6l23.53-12.11a3.37,3.37,0,0,1,4.89,3.44l-3,23.05a3.38,3.38,0,0,1-3.35,2.93Zm-13.24-14.25,10.53,5.61,1.55-11.83Z" transform="translate(-64.77 0)" fill="#a4afda"/></g><g id="Group_145" data-name="Group 145"><path id="Path_220" data-name="Path 220" d="M78.4,458.29A13.64,13.64,0,1,1,92,444.66h0A13.64,13.64,0,0,1,78.4,458.29Zm0-20.5a6.88,6.88,0,1,0,6.88,6.88A6.88,6.88,0,0,0,78.4,437.79Z" transform="translate(-64.77 0)" fill="#a4afda"/></g><g id="Group_148" data-name="Group 148"><g id="Group_146" data-name="Group 146"><path id="Path_221" data-name="Path 221" d="M407.44,165.51a3.39,3.39,0,0,1-2.93-1.69L393,143.9a3.38,3.38,0,0,1,5.85-3.37l11.48,19.92a3.37,3.37,0,0,1-2.92,5.06Z" transform="translate(-64.77 0)" fill="#a4afda"/></g><g id="Group_147" data-name="Group 147"><path id="Path_222" data-name="Path 222" d="M391.74,161.28a3.37,3.37,0,0,1-1.68-6.29L410,143.5a3.37,3.37,0,0,1,3.36,5.85l-19.92,11.48A3.31,3.31,0,0,1,391.74,161.28Z" transform="translate(-64.77 0)" fill="#a4afda"/></g></g><g id="Group_149" data-name="Group 149"><path id="Path_223" data-name="Path 223" d="M187.12,455.14a12.74,12.74,0,0,1-5.83-1.45c-6.06-3.07-7.06-8.61-7.86-13.05-.77-4.27-1.35-6.75-4.27-8.23a3.38,3.38,0,0,1,3.05-6c6.06,3.07,7,8.61,7.86,13.05.77,4.26,1.35,6.75,4.27,8.23s5.26.48,9.16-1.41c4.07-2,9.12-4.44,15.17-1.37a3.37,3.37,0,1,1-2.89,6.09l-.16-.07c-2.92-1.48-5.26-.48-9.16,1.41A21.39,21.39,0,0,1,187.12,455.14Z" transform="translate(-64.77 0)" fill="#a4afda"/></g><g id="Group_150" data-name="Group 150"><path id="Path_224" data-name="Path 224" d="M173.2,232.62c-20.37-.52-50.66,3.91-61.64,5.09s-12.88,0-14.62-2.56-4.18-7-4.18-7-5.23-.07-4.53,6.54-.06,3.45-.06,3.45-6.9-1.7-8,2.82l-1,4.53a10.32,10.32,0,0,0,0,7.65,8.41,8.41,0,0,0,1,8.36c3.13,3.49,7.65,5.58,18.46,7s75.28,2.44,91.45,0Z" transform="translate(-64.77 0)" fill="#e7a38a"/></g><g id="Group_151" data-name="Group 151"><path id="Path_225" data-name="Path 225" d="M380.18,288.29a14.87,14.87,0,0,1-8.85-26.83,3.37,3.37,0,1,1,4,5.43A8.12,8.12,0,0,0,385,280a3.38,3.38,0,0,1,4.13,5.34l-.13.09A14.8,14.8,0,0,1,380.18,288.29Z" transform="translate(-64.77 0)" fill="#a4afda"/></g><g id="Group_152" data-name="Group 152"><path id="Path_226" data-name="Path 226" d="M360.74,466.12c12,10.45,17.24,15.68,28.73,23s16.2,7.31,8.36,9.93-21.63-.53-30.14-4.18S354,476.57,354,476.57Z" transform="translate(-64.77 0)" fill="#a4afda"/></g><g id="Group_153" data-name="Group 153"><path id="Path_227" data-name="Path 227" d="M293.6,242.65a2,2,0,0,1-2-2,2.25,2.25,0,0,1,.11-.68L341.07,102a2,2,0,0,1,3.81,1.36L295.5,241.31A2,2,0,0,1,293.6,242.65Z" transform="translate(-64.77 0)" fill="#17192d"/></g><g id="Group_154" data-name="Group 154"><path id="Path_228" data-name="Path 228" d="M303.8,318.7c14.11-3.54,26.43,4.81,30.71,28.32S343,403.44,343,407.09s-8.47,7.32-8.47,7.32l-22.72-4.71s-19.13-30.85-21.92-59.55S303.8,318.7,303.8,318.7Z" transform="translate(-64.77 0)" fill="#9f1ba2"/></g><g id="Group_155" data-name="Group 155"><path id="Path_229" data-name="Path 229" d="M240.83,111.08c-17.51,5.06-43.67,28.56-47.86,90.55,0,0-2.08,9.05,9.76,9.05s30.31,4.18,52.76,0,32.21-73.13,32.21-73.13,7-4.18,0-11.84S260.12,105.51,240.83,111.08Z" transform="translate(-64.77 0)" fill="#17192d"/></g><g id="Group_156" data-name="Group 156"><path id="Path_230" data-name="Path 230" d="M287.7,137.54c4.18,16.72,4.88,46,4.88,60.6s-12.54,18.1-34.13,16v9.06s-8.36,11.14-27.86,0V187s-4.18,2.17-9.75-4.14-1.4-20.24,11.14-20.24c0,0,10.12-8.35,23.52-20.89S287.7,137.54,287.7,137.54Z" transform="translate(-64.77 0)" fill="#e7a38a"/></g><g id="Group_157" data-name="Group 157"><path id="Path_231" data-name="Path 231" d="M226.41,75.56c14.07-7.37,24.38,2.79,21.59,16s-3.87,18.11.5,25.08l-7.67,2.79s.9-9.06-14.42-13.24S211.78,83.22,226.41,75.56Z" transform="translate(-64.77 0)" fill="#17192d"/></g><g id="Group_158" data-name="Group 158"><path id="Path_232" data-name="Path 232" d="M220.16,325.82c-1.51,12.32-8.85,32.7,15.72,59.34s32.4,25.59,41.28,39.7,37.61,42.31,73.13,57.46c0,0,3.14,2.09,9.4-4.7s11-9.92,5.74-17.76-14.84-25.07-30.92-45.44-41.69-63.21-41.69-63.21l-1.06-20.76-6.12-11.74Z" transform="translate(-64.77 0)" fill="#d7159c"/></g><g id="Group_159" data-name="Group 159"><path id="Path_233" data-name="Path 233" d="M248.5,152.17c18.31,2.62,35.47,3.66,42.3,0a11.52,11.52,0,0,1,7.87,12.54,36,36,0,0,1-6.37,16.79,28.83,28.83,0,0,1-6.51-3.73c-4.88-3.13-4.53-7.65-8.8-7.75-5.8-.12-7.05,7.39-16.45,11.48s-12,2-12,2a21.2,21.2,0,0,1-10.42-13.06C234.7,160.34,238,153.22,248.5,152.17Z" transform="translate(-64.77 0)" fill="#17192d"/></g><g id="Group_160" data-name="Group 160"><path id="Path_234" data-name="Path 234" d="M251,181.34a3.86,3.86,0,0,1-1.07-.12l-.07-.05-.34-.15a18.59,18.59,0,0,1-8.9-11.42c-1.55-4.61-1.51-8.37.09-10.85a10,10,0,0,1,7.72-3.86,202.89,202.89,0,0,0,27.29,2.35,40.69,40.69,0,0,0,15.17-2.14,8.65,8.65,0,0,1,5.08,9.33A34,34,0,0,1,291.37,178c-.89-.51-2.21-1.3-4.12-2.54a11.82,11.82,0,0,1-3.52-3.76,7.87,7.87,0,0,0-6.68-4.42h-.19c-4,0-6.46,2.6-8.81,5.12a24.36,24.36,0,0,1-8.58,6.58A22.48,22.48,0,0,1,251,181.34Z" transform="translate(-64.77 0)" fill="#a4afda"/></g><g id="Group_161" data-name="Group 161"><path id="Path_235" data-name="Path 235" d="M230.58,222.52c-16.71.7-45.88,1.55-58.42,5.65,0,0-6.27.62-3.48,12.46S175,272,175,272s-2.09,4.18,9.75,3.49,27.77.07,27.77.07l3.24,48.68s13.43,7.65,49.36,0,40.56-14.54,40.56-14.54l-15.76-41.53S312.4,304,311.79,283.8s-15.74-55.64-15.74-55.64-14-8.58-37.6-6.31C258.45,221.86,252.18,230.88,230.58,222.52Z" transform="translate(-64.77 0)" fill="#a4afda"/></g><g id="Group_162" data-name="Group 162"><path id="Path_236" data-name="Path 236" d="M201.74,224.23s-2.07-3.45,3.51-3.8,10.47-.69,12.72,3.14,8.34,35-5.5,52c0,0-1.65,3.91-6.53,0,0,0,3.83-10.18,3.48-28.29S201.74,224.23,201.74,224.23Z" transform="translate(-64.77 0)" fill="#17192d"/></g><g id="Group_163" data-name="Group 163"><path id="Path_237" data-name="Path 237" d="M270.72,221.86c-1.05,8,.69,36.53,19.15,46.29,0,0,1.65.26,3-2.36s1.05-3.39-1.57-6.79-12.43-14.54-9.22-36.13c0,0-.18-2-4.36-2.63S270.93,218.69,270.72,221.86Z" transform="translate(-64.77 0)" fill="#17192d"/></g><g id="Group_164" data-name="Group 164"><path id="Path_238" data-name="Path 238" d="M236.81,192.22a21.23,21.23,0,0,0,17,20.85,88.38,88.38,0,0,0,19.35,1.51c14.16-.42,19.52-5,19.39-16.44l-.14-11.48a8.54,8.54,0,0,1-6.13-2.6c-2.09-2.63-14.33-6.46-21.62,2.95s-21.32,11.84-27.89.69Z" transform="translate(-64.77 0)" fill="#17192d"/></g><g id="Group_165" data-name="Group 165"><path id="Path_239" data-name="Path 239" d="M269.25,193.62a97.82,97.82,0,0,0,15.5,0,8.46,8.46,0,0,1-7.75,7.31C269.94,201.63,269.25,193.62,269.25,193.62Z" transform="translate(-64.77 0)" fill="#fafafa"/></g><g id="Group_166" data-name="Group 166"><path id="Path_240" data-name="Path 240" d="M208.39,230.2a2,2,0,0,1-1.62-.81l-81.5-108.74a2,2,0,0,1,3.17-2.52l.06.09L210,227a2,2,0,0,1-1.61,3.24Z" transform="translate(-64.77 0)" fill="#17192d"/></g><g id="Group_167" data-name="Group 167"><path id="Path_241" data-name="Path 241" d="M311.79,184.05c-8,3.64-15.74,6.35-15.74,25.24s-3.39,66.16,7.75,78,32.05-3.49,30.65-29.26S324,214.86,322.6,206.5a89.87,89.87,0,0,1-.69-18.11s-5.39-1.39-6.87,6.27Z" transform="translate(-64.77 0)" fill="#e7a38a"/></g><g id="Group_168" data-name="Group 168"><path id="Path_242" data-name="Path 242" d="M308.53,313.55s-15.94-3.35-23.78,19.89l9.62,20.29s-7.28-28.13,6.83-34.39,26,8.28,26,8.28S320.25,314.89,308.53,313.55Z" transform="translate(-64.77 0)" fill="#17192d"/></g><g id="Group_169" data-name="Group 169"><path id="Path_243" data-name="Path 243" d="M342.46,472.17a1.36,1.36,0,0,1-.87-.31L315.4,449.92a102.28,102.28,0,0,1-25.31-29.47,59,59,0,0,0-12.57-16C252,382.18,235.8,363,230.58,349.06a1.35,1.35,0,1,1,2.52-.95c5.07,13.54,21.05,32.32,46.2,54.3A62.17,62.17,0,0,1,292.4,419a99.94,99.94,0,0,0,24.73,28.8l26.19,21.94a1.35,1.35,0,0,1,.19,1.9,1.38,1.38,0,0,1-1.05.49Z" transform="translate(-64.77 0)" fill="#fafafa"/></g><g id="Group_170" data-name="Group 170"><path id="Path_244" data-name="Path 244" d="M265.07,377.84c14.51-2,42.7-2.47,42.7-2.47s4.52-10.66-8.61-13.76c0,0-46-7.43-72.15,12.24,0,0-5.23,3.47-3.14,6.61s5.2,11.48,12,8.88S248.79,380,265.07,377.84Z" transform="translate(-64.77 0)" fill="#17192d"/></g></g></svg>