<svg id="Layer_1" data-name="Layer 1" xmlns="http://www.w3.org/2000/svg" viewBox="0 0 400.31 500"><title>Untitled-5</title><g id="Group_136" data-name="Group 136"><g id="Group_82" data-name="Group 82"><path id="Path_179" data-name="Path 179" d="M346.5,298.58l13.16,13.16L346.5,324.9l-13.16-13.16,13.16-13.16m0-6.63a6.61,6.61,0,0,0-4.68,1.94l-13.16,13.16a6.63,6.63,0,0,0,0,9.38l13.16,13.16a6.61,6.61,0,0,0,4.7,2h0a6.65,6.65,0,0,0,4.7-2l13.16-13.16a6.63,6.63,0,0,0,0-9.38l-13.16-13.16a6.64,6.64,0,0,0-4.7-1.94Z" transform="translate(-49.85 0)" fill="#a4afda"/></g><g id="Group_83" data-name="Group 83"><path id="Path_180" data-name="Path 180" d="M425.49,241.27a3.25,3.25,0,0,1-1.56-.39l-20.16-10.74a3.32,3.32,0,0,1,0-5.88l23.13-11.9a3.32,3.32,0,0,1,4.46,1.44,3.26,3.26,0,0,1,.34,1.94l-3,22.65a3.31,3.31,0,0,1-3.29,2.88Zm-13-14,10.34,5.51,1.52-11.62Z" transform="translate(-49.85 0)" fill="#a4afda"/></g><g id="Group_84" data-name="Group 84"><path id="Path_181" data-name="Path 181" d="M194.49,72.38A13.4,13.4,0,1,1,207.88,59a13.4,13.4,0,0,1-13.39,13.4Zm0-20.15A6.76,6.76,0,1,0,201.25,59h0A6.78,6.78,0,0,0,194.49,52.23Z" transform="translate(-49.85 0)" fill="#a4afda"/></g><g id="Group_85" data-name="Group 85"><circle id="Ellipse_19" data-name="Ellipse 19" cx="290.91" cy="109.89" r="109.4" fill="#a4afda"/></g><g id="Group_88" data-name="Group 88"><g id="Group_86" data-name="Group 86"><path id="Path_182" data-name="Path 182" d="M128.13,140.51a3.31,3.31,0,0,1-2.88-1.66L114,119.28a3.32,3.32,0,0,1,5.75-3.31h0L131,135.54a3.32,3.32,0,0,1-1.23,4.53A3.25,3.25,0,0,1,128.13,140.51Z" transform="translate(-49.85 0)" fill="#a4afda"/></g><g id="Group_87" data-name="Group 87"><path id="Path_183" data-name="Path 183" d="M112.71,136.36a3.31,3.31,0,0,1-1.66-6.19l19.57-11.28a3.31,3.31,0,0,1,3.31,5.74h0l-19.57,11.29A3.29,3.29,0,0,1,112.71,136.36Z" transform="translate(-49.85 0)" fill="#a4afda"/></g></g><g id="Group_89" data-name="Group 89"><path id="Path_184" data-name="Path 184" d="M404.07,380.92a21.16,21.16,0,0,1-9.08-2.68c-3.85-1.84-6.17-2.8-9-1.32a3.31,3.31,0,0,1-3.06-5.87c5.92-3.07,10.91-.71,14.92,1.21,3.85,1.83,6.16,2.79,9,1.32s3.4-3.93,4.12-8.13c.75-4.38,1.69-9.82,7.61-12.89a3.31,3.31,0,0,1,3.06,5.87c-2.86,1.48-3.41,3.93-4.13,8.13-.75,4.38-1.68,9.82-7.61,12.89A12.33,12.33,0,0,1,404.07,380.92Z" transform="translate(-49.85 0)" fill="#a4afda"/></g><g id="Group_90" data-name="Group 90"><path id="Path_185" data-name="Path 185" d="M71.64,27A14.6,14.6,0,0,1,62.94.65,3.31,3.31,0,1,1,66.87,6a8,8,0,0,0,9.47,12.84,3.32,3.32,0,1,1,3.93,5.34A14.5,14.5,0,0,1,71.64,27Z" transform="translate(-49.85 0)" fill="#a4afda"/></g><g id="Group_91" data-name="Group 91"><path id="Path_186" data-name="Path 186" d="M137.49,213c-5.13-7.19-3.08-8.21-3.08-21s-11.28-18.48-22.07-9.76-9.75,19,2.57,24.64,13.86,2.05,18,11.28Z" transform="translate(-49.85 0)" fill="#17192d"/></g><g id="Group_92" data-name="Group 92"><path id="Path_187" data-name="Path 187" d="M175,230.43c11.28,16.94,18.47,33.88,19.5,49.28s-35.93,14.88-35.93,14.88-61.22-10.87-42.09-47.73S175,230.43,175,230.43Z" transform="translate(-49.85 0)" fill="#e7a38a"/></g><g id="Group_93" data-name="Group 93"><path id="Path_188" data-name="Path 188" d="M129.79,299.21c-2.57,12.83-3.08,16.94-3.08,16.94S138,328,159.05,319.23l-2.05-20Z" transform="translate(-49.85 0)" fill="#e7a38a"/></g><g id="Group_94" data-name="Group 94"><path id="Path_189" data-name="Path 189" d="M162.64,209.9c13.87,3.59,21.13,5.39,18,14.88s-11.07,32.85-8.62,44.65,11.39,11.14,15.8,4.11l4.41-7s4.32-1.18,6.37,5.49,2.05,23.09,0,27.2-16.94,5.14-31.82,3.08c0,0,7.7,6.68-9.75,6.68s-32.34,0-47.23-4.11S95.4,292,99,265.84,119,207.85,162.64,209.9Z" transform="translate(-49.85 0)" fill="#17192d"/></g><g id="Group_95" data-name="Group 95"><path id="Path_190" data-name="Path 190" d="M209.52,313.58c15.06-17.11,24.73-22.24,34.12-44.48s7.71-30.47,9.38-44.32,1-19.33,5.78-18.64,4,7.52,4,7.52a17.94,17.94,0,0,1,8.36,4.44,17.64,17.64,0,0,1,7.52,3.76s6.84-2.05,6.16,8.22S281.39,310.84,239,341.64Z" transform="translate(-49.85 0)" fill="#e7a38a"/></g><g id="Group_96" data-name="Group 96"><path id="Path_191" data-name="Path 191" d="M408,486.56a62.77,62.77,0,0,0,14.88,0c7.19-1,10.27-3.77,9.75-19.59s-2.05-29.76-7.18-34.86-7.19,3.64-9.24,13.9-6.67,20.87-12.32,21C403.89,467,396.7,483.48,408,486.56Z" transform="translate(-49.85 0)" fill="#939ac3"/></g><g id="Group_97" data-name="Group 97"><path id="Path_192" data-name="Path 192" d="M85,364.23c-.68,24.64-2.73,63-7.52,84.86s-10.26,39.7-10.26,39.7c-8.22,0-24.28,10.54-14,10.54s36.47,4.52,43.71-9.86a296,296,0,0,0,24.32-71.16c5.51-28.75-8.46-54.07-8.46-54.07Z" transform="translate(-49.85 0)" fill="#e7a38a"/></g><g id="Group_98" data-name="Group 98"><path id="Path_193" data-name="Path 193" d="M175.5,493.09s31.8-2.94,53.87-2.42,80.59-1.15,120.11-.06,55.95,2.11,58.52-4.05,2.57-22.07-3.59-24.12-39.53-9.24-81.62-13.87-61.08-7.18-96-7.7-72.38,3.45-75.45,26.11S175.5,493.09,175.5,493.09Z" transform="translate(-49.85 0)" fill="#9f1ba2"/></g><g id="Group_99" data-name="Group 99"><path id="Path_194" data-name="Path 194" d="M336.14,471.16c2.05,10.78.51,12.19,0,19.19s12.83,6.48,32.34,6.48,33.11.23,30.67-6.05-4.5-2.68-20.41-10.38a87.3,87.3,0,0,1-25.66-19Z" transform="translate(-49.85 0)" fill="#a4afda"/></g><g id="Group_100" data-name="Group 100"><path id="Path_195" data-name="Path 195" d="M126.71,432.11c2,14.93,11.28,61.13,42.61,61.13s50.08-9.76,74.32-35.93,28.33-40,31.93-33.38,15.91,27.72,35.93,40.55,22.8,18.48,35,11.28,13.24-10.26,8.1-24.63S320.23,377.21,306.38,368s-37.69,6.68-62.73,22.07-43.54,27.23-43.54,27.23Z" transform="translate(-49.85 0)" fill="#d7159c"/></g><g id="Group_101" data-name="Group 101"><path id="Path_196" data-name="Path 196" d="M346.51,472.49a1.33,1.33,0,0,1-1.11-.6c-11.61-17.82-37.6-61.61-43.87-78.28-2-5.32-3.76-8-5.72-8.56-2.8-.86-7.14,2.21-13.71,6.85-2.3,1.63-4.9,3.46-7.85,5.43-7.28,4.85-16.73,11.9-26.74,19.36-15.39,11.46-31.31,23.32-41.62,28.95a1.33,1.33,0,0,1-1.28-2.33c10.16-5.54,26-17.34,41.31-28.75,10-7.48,19.52-14.55,26.86-19.44,2.92-1.94,5.51-3.77,7.79-5.38,7.47-5.28,12-8.46,16-7.23,2.87.88,5.09,3.92,7.43,10.17,6.19,16.5,32.05,60,43.6,77.76a1.33,1.33,0,0,1-.38,1.84,1.35,1.35,0,0,1-.73.21Z" transform="translate(-49.85 0)" fill="#fafafa"/></g><g id="Group_102" data-name="Group 102"><path id="Path_197" data-name="Path 197" d="M159.05,319.23c19-.17,23.14.51,35.44-5.64s15.72-12.32,20.51-8.21,23.27,23.26,33.54,31.49c0,0,6.63,0-4.9,8.9s-24.53,11-30,28.74-2.74,52-2.74,52S165,445,121.2,433.37c0,0-12.77-37-16.29-46.54s-13.1-7.06-22-16.19,11.47-57.55,43.8-54.47C126.71,316.15,138.69,323.51,159.05,319.23Z" transform="translate(-49.85 0)" fill="#a4afda"/></g><g id="Group_103" data-name="Group 103"><circle id="Ellipse_20" data-name="Ellipse 20" cx="270.89" cy="62.07" r="20.02" fill="#fafafa"/></g><g id="Group_104" data-name="Group 104"><circle id="Ellipse_21" data-name="Ellipse 21" cx="270.89" cy="125.72" r="20.02" fill="#fafafa"/></g><g id="Group_105" data-name="Group 105"><circle id="Ellipse_22" data-name="Ellipse 22" cx="223.2" cy="102.11" r="20.02" fill="#fafafa"/></g><g id="Group_110" data-name="Group 110"><g id="Group_106" data-name="Group 106"><rect id="Rectangle_52" data-name="Rectangle 52" x="309.9" y="58.48" width="66.22" height="26.18" rx="13.09" fill="#fafafa"/></g><g id="Group_107" data-name="Group 107"><circle id="Ellipse_23" data-name="Ellipse 23" cx="323.93" cy="71.57" r="8.9" fill="#a4afda"/></g><g id="Group_108" data-name="Group 108"><path id="Path_198" data-name="Path 198" d="M403.55,69.55H390.2a1.66,1.66,0,0,1,0-3.32h13.35a1.66,1.66,0,0,1,0,3.32Z" transform="translate(-49.85 0)" fill="#a4afda"/></g><g id="Group_109" data-name="Group 109"><path id="Path_199" data-name="Path 199" d="M416.89,77.41H390.2a1.66,1.66,0,1,1,0-3.32h26.69a1.66,1.66,0,1,1,0,3.32Z" transform="translate(-49.85 0)" fill="#a4afda"/></g></g><g id="Group_115" data-name="Group 115"><g id="Group_111" data-name="Group 111"><rect id="Rectangle_53" data-name="Rectangle 53" x="309.9" y="92.61" width="66.22" height="26.18" rx="13.09" fill="#fafafa"/></g><g id="Group_112" data-name="Group 112"><circle id="Ellipse_24" data-name="Ellipse 24" cx="323.93" cy="105.7" r="8.9" fill="#a4afda"/></g><g id="Group_113" data-name="Group 113"><path id="Path_200" data-name="Path 200" d="M403.55,103.68H390.2a1.66,1.66,0,0,1,0-3.32h13.35a1.66,1.66,0,0,1,0,3.32Z" transform="translate(-49.85 0)" fill="#a4afda"/></g><g id="Group_114" data-name="Group 114"><path id="Path_201" data-name="Path 201" d="M416.89,111.55H390.2a1.66,1.66,0,1,1,0-3.32h26.69a1.66,1.66,0,1,1,0,3.32Z" transform="translate(-49.85 0)" fill="#a4afda"/></g></g><g id="Group_120" data-name="Group 120"><g id="Group_116" data-name="Group 116"><rect id="Rectangle_54" data-name="Rectangle 54" x="309.9" y="126.75" width="66.22" height="26.18" rx="13.09" fill="#fafafa"/></g><g id="Group_117" data-name="Group 117"><circle id="Ellipse_25" data-name="Ellipse 25" cx="323.93" cy="139.84" r="8.9" fill="#a4afda"/></g><g id="Group_118" data-name="Group 118"><path id="Path_202" data-name="Path 202" d="M403.55,137.81H390.2a1.66,1.66,0,0,1,0-3.31h13.35a1.66,1.66,0,1,1,0,3.31Z" transform="translate(-49.85 0)" fill="#a4afda"/></g><g id="Group_119" data-name="Group 119"><path id="Path_203" data-name="Path 203" d="M416.89,145.68H390.2a1.66,1.66,0,1,1,0-3.31h26.69a1.66,1.66,0,1,1,0,3.31Z" transform="translate(-49.85 0)" fill="#a4afda"/></g></g><g id="Group_121" data-name="Group 121"><rect id="Rectangle_55" data-name="Rectangle 55" x="181.51" y="164.96" width="172.19" height="21.9" rx="10.95" fill="#fafafa"/></g><g id="Group_122" data-name="Group 122"><circle id="Ellipse_26" data-name="Ellipse 26" cx="188.42" cy="175.91" r="30.17" fill="#d7159c"/></g><g id="Group_125" data-name="Group 125"><g id="Group_123" data-name="Group 123"><path id="Path_204" data-name="Path 204" d="M238.27,193.49a3.32,3.32,0,0,1-3.32-3.31h0V161.64a3.32,3.32,0,0,1,6.63-.18v28.72A3.31,3.31,0,0,1,238.27,193.49Z" transform="translate(-49.85 0)" fill="#fafafa"/></g><g id="Group_124" data-name="Group 124"><path id="Path_205" data-name="Path 205" d="M252.54,179.22H224a3.32,3.32,0,0,1,0-6.63h28.54a3.32,3.32,0,0,1,0,6.63Z" transform="translate(-49.85 0)" fill="#fafafa"/></g></g><g id="Group_128" data-name="Group 128"><g id="Group_126" data-name="Group 126"><path id="Path_206" data-name="Path 206" d="M272.75,111.2a9.08,9.08,0,0,1-3.84-.79,7.72,7.72,0,0,1-4.14-4.54,1.66,1.66,0,0,1,3.1-1.17v0a4.51,4.51,0,0,0,2.4,2.65,8.07,8.07,0,0,0,6.16-.27,2.56,2.56,0,0,0,1.88-2.92c-.26-1.26-1.6-2.67-4.58-2.61-5.95.21-8-1.52-8.66-3a4,4,0,0,1,1.13-4.49,11.58,11.58,0,0,1,11.53-2.82,1.65,1.65,0,1,1-1.39,3h0a8.56,8.56,0,0,0-7.73,2.1c-.47.49-.53.8-.52.85.06.2,1.24,1.21,5.53,1.06a7.17,7.17,0,0,1,7.93,5.26,5.84,5.84,0,0,1-3.92,6.68A13.6,13.6,0,0,1,272.75,111.2Z" transform="translate(-49.85 0)" fill="#a4afda"/></g><g id="Group_127" data-name="Group 127"><path id="Path_207" data-name="Path 207" d="M271.29,116.6a1.65,1.65,0,0,1-1.66-1.65V89.27a1.66,1.66,0,1,1,3.32,0V115a1.65,1.65,0,0,1-1.66,1.65Z" transform="translate(-49.85 0)" fill="#a4afda"/></g></g><g id="Group_131" data-name="Group 131"><g id="Group_129" data-name="Group 129"><path id="Path_208" data-name="Path 208" d="M321.45,70a9.23,9.23,0,0,1-3.84-.78,7.76,7.76,0,0,1-4.15-4.55,1.66,1.66,0,0,1,3.12-1.12,4.49,4.49,0,0,0,2.4,2.65,8,8,0,0,0,6.15-.26A2.56,2.56,0,0,0,327,63c-.25-1.26-1.61-2.66-4.57-2.61-5.95.21-8-1.52-8.66-3a4.08,4.08,0,0,1,1.12-4.5,11.64,11.64,0,0,1,11.54-2.82,1.68,1.68,0,0,1,.81,2.21,1.65,1.65,0,0,1-2.2.8h0a8.55,8.55,0,0,0-7.73,2.09c-.47.5-.53.81-.52.86s1.25,1.21,5.53,1.06a7.17,7.17,0,0,1,7.93,5.25,5.86,5.86,0,0,1-3.92,6.68A13.61,13.61,0,0,1,321.45,70Z" transform="translate(-49.85 0)" fill="#a4afda"/></g><g id="Group_130" data-name="Group 130"><path id="Path_209" data-name="Path 209" d="M320,75.44a1.66,1.66,0,0,1-1.66-1.66V48.1a1.66,1.66,0,1,1,3.31,0V73.78A1.64,1.64,0,0,1,320,75.44Z" transform="translate(-49.85 0)" fill="#a4afda"/></g></g><g id="Group_134" data-name="Group 134"><g id="Group_132" data-name="Group 132"><path id="Path_210" data-name="Path 210" d="M321.45,135.84a9.4,9.4,0,0,1-3.84-.79,7.77,7.77,0,0,1-4.15-4.54,1.66,1.66,0,0,1,3.12-1.13A4.49,4.49,0,0,0,319,132a8,8,0,0,0,6.15-.26,2.56,2.56,0,0,0,1.88-2.93c-.25-1.26-1.64-2.7-4.57-2.6-5.95.19-8-1.53-8.66-3a4.08,4.08,0,0,1,1.12-4.5,11.62,11.62,0,0,1,11.54-2.82,1.66,1.66,0,0,1-1.39,3,8.52,8.52,0,0,0-7.73,2.09c-.47.5-.53.81-.52.86.06.2,1.25,1.19,5.53,1.05a7.17,7.17,0,0,1,7.93,5.26,5.85,5.85,0,0,1-3.92,6.68A13.61,13.61,0,0,1,321.45,135.84Z" transform="translate(-49.85 0)" fill="#a4afda"/></g><g id="Group_133" data-name="Group 133"><path id="Path_211" data-name="Path 211" d="M320,141.25a1.66,1.66,0,0,1-1.66-1.66V113.9a1.66,1.66,0,0,1,3.31,0v25.68a1.66,1.66,0,0,1-1.65,1.67Z" transform="translate(-49.85 0)" fill="#a4afda"/></g></g><g id="Group_135" data-name="Group 135"><circle id="Ellipse_27" data-name="Ellipse 27" cx="340.36" cy="175.91" r="6.67" fill="#a4afda"/></g></g></svg>