<?xml version="1.0" encoding="utf-8"?>
<!-- Generator: Adobe Illustrator 23.0.3, SVG Export Plug-In . SVG Version: 6.00 Build 0)  -->
<svg version="1.1" id="Layer_1" xmlns="http://www.w3.org/2000/svg" xmlns:xlink="http://www.w3.org/1999/xlink" x="0px" y="0px"
	 viewBox="0 0 400 400" style="enable-background:new 0 0 400 400;" xml:space="preserve">
<style type="text/css">
	.st0{opacity:0.5;}
	.st1{fill:#FAFAFA;}
	.st2{fill:#A2A2A3;}
	.st3{fill:#FFFFFF;}
	.st4{fill:#FFFFFF;stroke:#A2A2A3;stroke-width:2.061;stroke-miterlimit:10;}
	.st5{fill:#FFFFFF;stroke:#A2A2A3;stroke-width:2.7009;stroke-miterlimit:10;}
	.st6{fill:#FFFFFF;stroke:#A2A2A3;stroke-width:2.9575;stroke-miterlimit:10;}
</style>
<g>
	<g>
		<g class="st0">
			
				<image style="overflow:visible;" width="1102" height="1102" xlink:href="6857FD16.png"  transform="matrix(0.24 0 0 0.24 66.56 63.92)">
			</image>
			<g>
				<path class="st1" d="M189.3,89.6c-61.8,0-111.8,50.1-111.8,111.8s50.1,111.8,111.8,111.8c61.8,0,111.8-50.1,111.8-111.8
					S251.1,89.6,189.3,89.6z M263.9,261.6c-0.5,0.5-1.1,0.7-1.8,0.7l-59.8,0.1c0,6-4.2,11.4-10.3,12.7c-7,1.5-14-3-15.5-10
					c-0.2-0.9-0.3-1.8-0.3-2.6l4,0l-63.8,0.1c-0.7,0-1.3-0.3-1.8-0.7c-0.5-0.5-0.7-1.1-0.7-1.8c0-0.7,0.3-1.3,0.7-1.8
					c2.6-2.7,11.9-12.7,18.3-28.2c7.5-18.2-3.2-56,11.4-80c10.1-16.6,27.6-20.7,37.4-21.6c0-0.3-0.1-0.6-0.1-0.9l0-8.4
					c0-4,3.3-7.3,7.3-7.3c2,0,3.9,0.8,5.2,2.1c1.3,1.3,2.2,3.2,2.2,5.2l0,8.4c0,0.3,0,0.6-0.1,0.9c9.8,0.9,27.3,5,37.4,21.5
					c14.7,24,4.1,61.8,11.7,80c6.4,15.5,15.8,25.5,18.4,28.2c0.5,0.5,0.7,1.1,0.7,1.8C264.7,260.5,264.4,261.1,263.9,261.6z"/>
			</g>
		</g>
		<g>
			<path class="st2" d="M116.4,264.5c-1.2,0-2.3-0.5-3.2-1.3c-0.8-0.8-1.3-2-1.3-3.2c0-1.2,0.5-2.3,1.3-3.2
				c2.6-2.6,11.7-12.5,17.9-27.6c3-7.3,2.9-18.3,2.9-29.9c-0.1-16.8-0.1-35.9,8.7-50.4c10-16.4,26.8-21.1,37.1-22.4l0-7.5
				c0-5.1,4.2-9.3,9.3-9.3c0,0,0,0,0,0c2.5,0,4.8,1,6.6,2.7c1.8,1.8,2.7,4.1,2.7,6.6l0,7.5c10.3,1.3,27.1,5.9,37.1,22.2
				c8.9,14.4,8.8,33.5,8.8,50.4c0,11.6,0,22.7,3,29.9c6.3,15.1,15.4,24.9,18,27.5c0.8,0.8,1.3,2,1.3,3.2c0,1.2-0.5,2.4-1.3,3.2
				c-0.8,0.8-2,1.3-3.2,1.3L116.4,264.5C116.4,264.5,116.4,264.5,116.4,264.5z M189.1,113.7C189.1,113.7,189.1,113.7,189.1,113.7
				c-2.9,0-5.3,2.4-5.3,5.3l0,8.4c0,0.2,0,0.4,0,0.6l0.3,2.1l-2.1,0.2c-9.2,0.9-26.2,4.7-35.9,20.7c-8.2,13.5-8.1,32-8.1,48.3
				c0,12.1,0.1,23.5-3.2,31.4c-6.5,15.8-16,26.1-18.8,28.9c-0.1,0.1-0.1,0.2-0.1,0.3c0,0.2,0.1,0.3,0.1,0.4c0.1,0.1,0.2,0.1,0.4,0.1
				h0l145.7-0.3c0.2,0,0.3-0.1,0.3-0.1c0.1-0.1,0.2-0.2,0.2-0.4c0-0.1,0-0.3-0.1-0.3c-2.8-2.8-12.3-13-18.9-28.8
				c-3.3-8-3.3-19.4-3.3-31.4c0-16.3,0-34.8-8.2-48.3c-9.7-15.9-26.7-19.7-35.9-20.6l-2.1-0.2l0.3-2.1c0-0.2,0-0.4,0-0.6l0-8.4
				c0-1.4-0.6-2.8-1.6-3.8C191.9,114.3,190.5,113.7,189.1,113.7z"/>
		</g>
		<g>
			<path class="st2" d="M189.3,277.4c-6.9,0-13.2-4.8-14.7-11.9c-0.2-1-0.3-2-0.3-3l4,0c0,0.7,0.1,1.5,0.3,2.2
				c1.3,6,7.2,9.8,13.1,8.5c5.1-1.1,8.8-5.7,8.7-10.9l4,0c0.1,7.1-4.9,13.4-11.9,14.9C191.4,277.3,190.4,277.4,189.3,277.4z"/>
		</g>
		<g>
			<path class="st2" d="M189.3,315.3c-62.8,0-113.8-51.1-113.8-113.8c0-62.8,51.1-113.8,113.8-113.8c62.8,0,113.8,51.1,113.8,113.8
				C303.2,264.2,252.1,315.3,189.3,315.3z M189.3,91.6c-60.6,0-109.8,49.3-109.8,109.8s49.3,109.8,109.8,109.8
				S299.2,262,299.2,201.4S249.9,91.6,189.3,91.6z"/>
		</g>
	</g>
	<g>
		<path class="st3" d="M296.5,177.6H280c-14.4,0-26.1-11.7-26.1-26.1v-38.7c0-14.4,11.7-26.1,26.1-26.1h16.5
			c14.4,0,26.1,11.7,26.1,26.1v38.7C322.5,165.9,310.9,177.6,296.5,177.6z"/>
		<path class="st2" d="M296.5,179.6H280c-15.5,0-28.1-12.6-28.1-28.1v-38.7c0-15.5,12.6-28.1,28.1-28.1h16.5
			c15.5,0,28.1,12.6,28.1,28.1v38.7C324.5,167,311.9,179.6,296.5,179.6z M280,88.7c-13.3,0-24.1,10.8-24.1,24.1v38.7
			c0,13.3,10.8,24.1,24.1,24.1h16.5c13.3,0,24.1-10.8,24.1-24.1v-38.7c0-13.3-10.8-24.1-24.1-24.1H280z"/>
	</g>
	<g>
		<path class="st4" d="M264.7,157.4l5.7-7.5c0.4-0.5,0.8-1,1.2-1.5v0h-6.5v-0.9h7.8l0,0.7l-5.7,7.5c-0.4,0.5-0.7,1-1.1,1.5v0h6.9
			v0.9h-8.2V157.4z"/>
	</g>
	<g>
		<path class="st5" d="M281.2,143.3l7.5-9.9c0.5-0.7,1-1.3,1.6-2v-0.1h-8.5v-1.1H292l0,0.9l-7.5,9.9c-0.5,0.6-1,1.3-1.5,1.9v0.1h9
			v1.1h-10.8V143.3z"/>
	</g>
	<g>
		<path class="st6" d="M300.4,124.7l8.2-10.8c0.6-0.7,1.1-1.4,1.7-2.2v-0.1h-9.3v-1.2h11.1l0,1l-8.2,10.8c-0.5,0.7-1,1.4-1.6,2.1
			v0.1h9.9v1.2h-11.8V124.7z"/>
	</g>
</g>
</svg>
