<svg id="Layer_1" data-name="Layer 1" xmlns="http://www.w3.org/2000/svg" xmlns:xlink="http://www.w3.org/1999/xlink" viewBox="0 0 520 520"><defs><linearGradient id="linear-gradient" x1="380.4" y1="387.04" x2="190.76" y2="253.66" gradientUnits="userSpaceOnUse"><stop offset="0" stop-color="#e8068b"/><stop offset="1" stop-color="#a41bbe"/></linearGradient><linearGradient id="linear-gradient-2" x1="186.81" y1="122.83" x2="334.35" y2="122.83" xlink:href="#linear-gradient"/><linearGradient id="linear-gradient-3" x1="240.95" y1="308.51" x2="280.37" y2="308.51" xlink:href="#linear-gradient"/></defs><title>just fans lil icon-white</title><circle cx="260" cy="260" r="260" fill="#fafafa"/><path d="M260.67,191.46a268.18,268.18,0,0,0-101.26,19.7V311s43.07-10.85,43.07-39.89V242.06a228.17,228.17,0,0,1,116-.08v73.41a109.42,109.42,0,0,1-58,96.44L168,365.78a152.44,152.44,0,0,0,92.54,93A152.22,152.22,0,0,0,361.59,315.39V211A268.83,268.83,0,0,0,260.67,191.46Z" transform="translate(-0.5 -0.5)" fill="url(#linear-gradient)"/><path d="M260.57,62.25A73.83,73.83,0,0,0,186.81,136v42.72c0,1.56.06,3.13.16,4.69a281,281,0,0,1,34.84-6.92V136a38.78,38.78,0,0,1,77.55,0v40.46a283,283,0,0,1,34.83,6.89c.11-1.53.16-3.07.16-4.63V136A73.85,73.85,0,0,0,260.57,62.25Z" transform="translate(-0.5 -0.5)" fill="url(#linear-gradient-2)"/><path d="M280.37,291.29A19.71,19.71,0,1,0,254,309.81v33.9l6.68,1.73,7.21-1.73V309.62A19.7,19.7,0,0,0,280.37,291.29Z" transform="translate(-0.5 -0.5)" fill="url(#linear-gradient-3)"/></svg>