<?xml version="1.0" encoding="utf-8"?>
<!-- Generator: Adobe Illustrator 23.0.3, SVG Export Plug-In . SVG Version: 6.00 Build 0)  -->
<svg version="1.1" id="Layer_1" xmlns="http://www.w3.org/2000/svg" xmlns:xlink="http://www.w3.org/1999/xlink" x="0px" y="0px"
	 viewBox="0 0 521 521" style="enable-background:new 0 0 521 521;" xml:space="preserve">
<style type="text/css">
	.st0{fill:url(#SVGID_1_);}
	.st1{fill:#FAFAFA;}
</style>
<g>
	<linearGradient id="SVGID_1_" gradientUnits="userSpaceOnUse" x1="-54.7016" y1="-51.1062" x2="521.1931" y2="518.2194">
		<stop  offset="0" style="stop-color:#E8068B"/>
		<stop  offset="0.5146" style="stop-color:#C012A9"/>
		<stop  offset="0.935" style="stop-color:#A41BBE"/>
	</linearGradient>
	<rect class="st0" width="521" height="521"/>
	<g>
		<path class="st1" d="M260.7,191.5c-35.8,0-70,7-101.3,19.7V311c0,0,43.1-10.8,43.1-39.9v-29c18.9-5,38.4-7.5,58.2-7.5
			c19.7,0,39.1,2.5,57.8,7.5v73.4c0,40.7-22.8,77.7-58,96.4L168,365.8c15.2,43.3,49.4,77.6,92.5,93c58.9-21,101.1-77.2,101.1-143.4
			V211C330.4,198.4,296.4,191.5,260.7,191.5z"/>
		<g>
			<path class="st1" d="M260.6,62.2c-40.7,0-73.8,33.1-73.8,73.8v42.7c0,1.6,0.1,3.1,0.2,4.7c11.4-3,23-5.3,34.8-6.9V136
				c0-21.4,17.4-38.8,38.8-38.8s38.8,17.4,38.8,38.8v40.5c11.8,1.6,23.5,3.9,34.8,6.9c0.1-1.5,0.2-3.1,0.2-4.6V136
				C334.3,95.3,301.2,62.2,260.6,62.2z"/>
		</g>
		<path class="st1" d="M280.4,291.3c0-10.9-8.8-19.7-19.7-19.7c-10.9,0-19.7,8.8-19.7,19.7c0,8.5,5.4,15.8,13,18.5v33.9l6.7,1.7
			l7.2-1.7v-34.1C275.2,306.7,280.4,299.6,280.4,291.3z"/>
	</g>
</g>
</svg>
